<?xml version="1.0" encoding="UTF-8" standalone="no"?>
<!-- Created with Inkscape (http://www.inkscape.org/) -->

<svg
   version="1.1"
   id="svg62"
   width="126.12446"
   height="125.9679"
   viewBox="0 0 126.12446 125.96791"
   xmlns="http://www.w3.org/2000/svg"
   xmlns:svg="http://www.w3.org/2000/svg">
  <defs
     id="defs66" />
  <g
     id="g68"
     transform="translate(-1.9518636,-1.9580441)">
    <g
       id="g547"
       transform="translate(0.24332964,0.0263194)">
      <circle
         style="opacity:1;vector-effect:non-scaling-stroke;fill:#ffffff;fill-opacity:1;stroke:none;stroke-width:1.04996;stroke-opacity:1;-inkscape-stroke:hairline"
         id="path1346"
         cx="64.800545"
         cy="64.417168"
         r="61.996284" />
      <rect
         style="opacity:1;vector-effect:non-scaling-stroke;fill:#000000;fill-opacity:1;stroke:none;stroke-width:0.90534;stroke-opacity:1;-inkscape-stroke:hairline"
         id="rect1403"
         width="105.48806"
         height="47.84515"
         x="11.593938"
         y="33.687309" />
      <path
         style="fill:#efe217;stroke-width:0.32"
         d="M 86.080007,68.798755 C 81.524672,64.806054 77.581059,63.245818 72.455769,63.408515 68.041173,63.548653 68.205135,64.368832 70.974738,56 l 2.170986,-6.56 2.195741,-0.458074 c 5.01122,-1.04543 9.371738,0.541274 15.94203,5.800986 1.277536,1.022704 1.468813,0.695251 3.728471,-6.382912 1.0816,-3.388 2.103366,-6.16 2.270592,-6.16 0.167229,0 1.488419,0.948448 2.935982,2.107664 5.1421,4.117827 11.26668,6.092157 14.75091,4.755136 1.07969,-0.41432 0.91117,0.846333 -0.82403,6.164272 -0.96423,2.95511 -1.85066,5.830979 -1.96985,6.390816 -0.35412,1.663389 -0.8503,1.856342 -4.78144,1.859373 -4.28928,0.0033 -5.98787,-0.660653 -11.109127,-4.342426 -1.73698,-1.248749 -3.311191,-2.219437 -3.49825,-2.157085 -0.294784,0.09826 -3.214068,8.42018 -4.161213,11.86225 -0.413453,1.50255 -0.750845,1.491782 -2.545533,-0.08124 z M 39.413709,63.6 C 37.078595,56.335635 37.0727,56.268659 38.640003,54.807856 43.753325,50.041981 49.863732,47.992531 54.874199,49.362858 l 1.594193,0.436003 2.165808,6.534643 c 1.191193,3.594054 2.165805,6.689171 2.165805,6.878038 0,0.232576 -1.213418,0.300557 -3.760001,0.210647 -5.287494,-0.186675 -7.448682,0.621693 -12.79313,4.785123 C 43.15065,69.06129 42.060262,69.76 41.823786,69.76 c -0.276477,0 -1.136794,-2.198915 -2.410077,-6.16 z M 19.840002,63.317696 C 19.048001,63.135581 18.234543,62.818595 18.032315,62.61329 17.548494,62.122096 13.258559,49.34423 13.551646,49.267309 c 0.0266,-0.007 1.776355,-0.04298 3.888355,-0.08 L 21.280002,49.12 24.281506,47.580259 c 1.650827,-0.846857 3.970752,-2.322857 5.155389,-3.28 C 30.621531,43.343117 31.747148,42.56 31.938266,42.56 c 0.31212,0 4.541737,12.352506 4.541737,13.264048 0,0.998566 -5.819209,5.181229 -9.120619,6.55561 -2.655448,1.105465 -5.336661,1.439945 -7.519382,0.938038 z"
         id="path559" />
      <path
         style="fill:#ffffff;fill-opacity:1;stroke:none;stroke-width:0.32;stroke-opacity:1"
         d="M 55.383505,127.50881 C 28.527786,123.45174 7.3351129,102.86705 2.3533527,76 1.428669,71.013104 1.5157537,57.763747 2.5037371,53.12 9.0199809,22.492161 33.97782,1.9317248 64.640005,1.9317248 c 45.480545,0 75.778055,45.9137632 58.061585,87.9882752 -8.04623,19.10886 -26.108728,33.48185 -46.861584,37.2895 -4.152765,0.76193 -16.224961,0.93857 -20.456501,0.29931 z M 75.840006,126.8895 C 101.6266,122.15828 121.82507,101.90967 126.60347,76 128.08403,67.972016 127.32818,55.085296 124.90485,47.04 112.20738,4.8850736 61.740546,-11.589961 26.537881,14.927833 -3.6265075,37.650349 -6.6354204,82.61336 20.211776,109.46055 c 9.49012,9.49013 21.837699,15.7139 35.171729,17.72826 4.23154,0.63926 16.303736,0.46262 20.456501,-0.29931 z m -17.440001,-2.32177 c -4.913879,-0.5206 -7.451134,-1.65875 -7.132635,-3.19951 0.190736,-0.92272 2.066887,-0.58911 3.138522,0.55808 0.607811,0.65067 1.197651,0.9537 1.856327,0.9537 0.530992,0 1.182086,0.0831 1.44687,0.18474 0.267098,0.1025 0.787818,-0.12164 1.169629,-0.50345 1.159927,-1.15993 0.297152,-1.98539 -2.578378,-2.46685 -4.118477,-0.68957 -5.573459,-3.58984 -2.653289,-5.28892 2.252416,-1.31055 8.752954,0.42947 8.752954,2.34292 0,0.90684 -2.033082,0.85517 -2.67977,-0.0681 -1.113565,-1.58984 -4.680231,-1.43768 -4.680231,0.19967 0,1.05196 0.559418,1.36461 2.883168,1.61138 2.877303,0.30555 4.476833,1.37396 4.476833,2.99032 0,1.62675 -1.907597,2.90772 -4,2.68603 z m 2.612233,-0.88026 c 2.348458,-1.64493 0.639706,-4.04512 -3.144774,-4.41731 -2.522036,-0.24803 -3.14746,-0.64349 -3.14746,-1.99016 0,-1.97671 3.665633,-2.41625 5.086497,-0.60991 0.665555,0.84611 2.273504,1.07718 2.273504,0.32671 0,-0.81598 -1.71865,-1.58134 -4.46025,-1.98626 -3.344004,-0.49389 -4.629252,-0.12635 -4.969111,1.42102 -0.421507,1.91911 0.870967,2.952 4.264176,3.40775 2.646855,0.35551 3.630026,1.69585 2.253588,3.07229 -0.566109,0.56611 -0.905373,0.63864 -2.16,0.46177 -2.192253,-0.30905 -2.499825,-0.44 -3.067153,-1.30585 -0.509033,-0.77688 -2.421251,-1.16858 -2.421251,-0.49596 0,0.69115 2.000493,1.92011 3.44152,2.11423 0.835165,0.1125 1.66248,0.25385 1.83848,0.31412 0.90281,0.30912 3.6117,0.10819 4.212234,-0.31244 z m 3.455306,0.77237 c -0.115629,-0.18709 0.01987,-0.59443 0.301114,-0.9052 0.391654,-0.43277 0.511347,-1.26482 0.511347,-3.55464 0,-2.28982 -0.119693,-3.12187 -0.511347,-3.55464 -0.792493,-0.87569 -0.260755,-1.24536 1.791347,-1.24536 2.044282,0 2.508013,0.30917 1.857267,1.23824 -0.639782,0.91341 -0.258832,6.19604 0.507921,7.04329 0.886524,0.9796 0.360876,1.31847 -2.045188,1.31847 -1.211226,0 -2.296835,-0.15308 -2.412461,-0.34016 z m 4.412461,-0.16651 c 0.102666,-0.10266 -0.08933,-0.46266 -0.426665,-0.8 -0.476186,-0.47618 -0.627789,-1.13211 -0.677978,-2.93333 -0.09331,-3.34863 -0.07001,-3.85612 0.205667,-4.48 0.217639,-0.49253 0.05056,-0.56 -1.386787,-0.56 -1.595322,0 -1.925242,0.19921 -1.351408,0.816 0.505513,0.54336 0.641369,6.47332 0.162749,7.10383 -0.233872,0.30809 -0.429802,0.66817 -0.435402,0.80017 -0.01187,0.28011 3.633325,0.32983 3.909824,0.0533 z m 3.760001,-0.71104 -1.12,-0.54697 -0.431527,-3.31998 -0.431526,-3.31998 0.911526,-0.9074 c 1.522112,-1.51523 6.757172,-2.42963 8.262625,-1.44322 0.933395,0.61158 2.86209,6.07067 2.428675,6.87426 -0.713338,1.32257 -1.899936,1.98037 -4.681735,2.59533 -3.433401,0.75901 -3.52055,0.76021 -4.938038,0.068 z m 5.572029,-0.60848 c 3.826525,-0.84552 4.195085,-1.59995 2.82975,-5.79241 -1.078624,-3.31208 -1.404297,-3.50861 -4.881779,-2.94594 -4.887332,0.79079 -5.224199,1.18231 -4.694928,5.45666 0.371958,3.00391 0.383795,3.03234 1.494928,3.59163 1.167315,0.58757 1.198611,0.58572 5.252029,-0.30994 z m -3.7256,-0.5331 c -1.1037,-1.10369 -1.547146,-6.39585 -0.579332,-6.9138 1.074541,-0.57508 3.473793,-0.77433 4.005943,-0.33269 0.619114,0.51382 1.836189,4.58157 1.70633,5.70295 -0.165565,1.42971 -4.072045,2.60444 -5.132941,1.54354 z m 3.841773,-0.56069 c 1.09495,-0.40661 1.16671,-1.01388 0.437008,-3.69829 -0.815895,-3.00149 -0.923117,-3.1147 -2.697943,-2.84854 -2.508947,0.37624 -2.648391,0.62203 -2.171472,3.82765 0.5184,3.48446 1.217162,3.91313 4.432407,2.71918 z m -36.087571,-1.3544 c -1.937411,-0.79788 -2.422535,-1.63064 -1.216957,-2.089 0.543299,-0.20656 1.050192,-1.01173 1.837642,-2.91899 1.23383,-2.98841 1.126675,-3.60997 -0.652304,-3.78377 -1.683668,-0.1645 -2.267802,-0.8799 -1.591252,-1.94884 0.238999,-0.37761 0.687082,-0.27478 2.635101,0.60473 1.290925,0.58285 3.499137,1.45387 4.907137,1.93561 2.20568,0.75467 2.573469,0.98641 2.657312,1.67439 0.139306,1.1431 -0.645856,1.29404 -1.903779,0.36597 -1.740884,-1.28439 -2.195025,-0.98801 -3.387889,2.21096 -0.821929,2.20421 -0.977005,2.95365 -0.713181,3.44661 0.740871,1.38433 -0.05344,1.53947 -2.57183,0.50233 z m 2.182762,-0.49734 c -0.291277,-0.46641 -0.143767,-1.17871 0.742444,-3.58517 l 1.105937,-3.00311 1.229289,0.0405 c 0.768836,0.0253 1.338186,0.23509 1.520013,0.56 0.387011,0.69155 1.621194,0.69538 1.482384,0.005 -0.06526,-0.32479 -1.166733,-0.89625 -2.983462,-1.54785 -1.584,-0.56814 -3.641399,-1.4216 -4.571997,-1.89658 -0.930599,-0.47499 -1.830599,-0.77795 -2.000001,-0.67326 -0.36304,0.22437 -0.415395,1.10095 -0.068,1.13858 0.132,0.0143 0.611987,0.054 1.066634,0.0882 1.299811,0.0979 2.600534,1.09003 2.372195,1.80947 -0.737385,2.32329 -2.436906,5.59437 -3.088496,5.94445 -0.738077,0.39655 -0.72681,0.41318 0.689667,1.01788 2.645616,1.12942 3.15794,1.15034 2.503396,0.10225 z m 42.776608,0.13125 c -0.176,-0.057 -0.716,-0.19089 -1.2,-0.29764 -2.255674,-0.49749 -0.310516,-2.23089 2.128317,-1.89662 2.388195,0.32734 5.090272,-1.64975 4.018938,-2.94063 -0.579421,-0.69816 -1.616823,-0.56692 -3.876126,0.49033 -2.65135,1.24072 -4.196614,0.96446 -4.970902,-0.88867 -0.784842,-1.87839 -0.03346,-2.89653 3.345261,-4.5329 3.188874,-1.54442 5.272336,-1.71062 5.45393,-0.43505 0.133133,0.93516 -0.941207,1.48165 -2.443373,1.24288 -2.423869,-0.38527 -5.147908,2.32628 -3.31985,3.30462 0.482317,0.25813 1.111741,0.0906 2.925251,-0.77847 4.176247,-2.00142 7.037073,-0.73309 5.589121,2.47789 -0.6897,1.52948 -6.347822,4.6758 -7.650567,4.25426 z m 4.151482,-1.85051 c 3.145885,-1.66329 4.012794,-2.83372 3.225913,-4.35538 -0.79543,-1.53819 -2.098787,-1.59469 -4.976221,-0.21572 -2.761715,1.32352 -2.917347,1.3461 -3.655565,0.53038 -1.490761,-1.64728 0.797485,-4.0675 3.529933,-3.73352 1.409293,0.17225 2.633316,-0.40087 2.234461,-1.04624 -0.759587,-1.22903 -7.046698,1.24995 -8.039588,3.16999 -0.470393,0.90964 -0.46414,1.05337 0.08704,2.00076 0.8521,1.46461 2.32586,1.5244 5.177422,0.21003 2.444096,-1.12656 3.359318,-1.00104 3.73927,0.51281 0.37993,1.51376 -3.133094,3.7347 -4.74543,3.00007 -0.783325,-0.35691 -2.488717,0.0519 -2.488717,0.59655 0,1.25344 2.894249,0.92555 5.911482,-0.66973 z m -58.488043,-2.67397 c -1.927984,-1.19088 -2.312319,-2.10123 -0.968329,-2.29362 0.912953,-0.13068 3.990463,-4.77053 3.870489,-5.8354 -0.124038,-1.10095 0.631856,-1.09585 2.394397,0.0162 1.725402,1.08858 1.859165,1.457 0.717802,1.97704 -1.060493,0.4832 -3.672157,4.99166 -3.583485,6.1861 0.09341,1.25823 -0.326519,1.24955 -2.430874,-0.0503 z m 2.109459,-0.19877 c -0.170166,-0.89016 2.681533,-5.91965 3.504516,-6.18085 0.846976,-0.26882 0.690937,-0.60544 -0.710557,-1.53291 -1.562708,-1.03415 -1.606861,-1.03524 -1.606861,-0.0399 0,1.06088 -3.194647,5.90073 -3.901114,5.91014 -1.089242,0.0145 -0.856359,0.59926 0.624336,1.56767 1.810541,1.18414 2.275037,1.24545 2.08968,0.27582 z m -7.532903,-3.77825 c -1.617439,-1.39166 -1.907696,-2.17656 -0.902136,-2.43952 1.210447,-0.31654 1.018533,-1.07692 -0.73142,-2.89794 -1.788977,-1.86163 -2.64178,-2.06641 -2.994147,-0.71895 -0.266983,1.02094 -0.901191,0.75438 -2.468809,-1.03764 -1.736263,-1.98481 -1.713961,-2.30928 0.162822,-2.36885 0.777529,-0.0247 2.02569,-0.20468 2.77369,-0.4 0.748,-0.19532 1.936,-0.50468 2.64,-0.68746 0.704,-0.18279 1.28,-0.52515 1.28,-0.76082 0,-1.541522 1.005643,-1.244392 3.21769,0.95071 2.481741,2.46272 2.545091,2.59556 1.438427,3.01631 -0.534406,0.20318 -0.885638,0.68441 -1.103606,1.51208 -0.468358,1.77845 -0.974954,5.25322 -0.898673,6.16406 0.103067,1.23068 -0.730973,1.11597 -2.413838,-0.33198 z m 2.08884,-0.083 C 29.165296,109.67326 30.664992,104 31.531261,104 c 0.793769,0 0.538258,-0.43124 -1.380538,-2.33002 -1.935362,-1.915164 -2.310721,-2.136287 -2.310721,-1.36124 0,0.83702 -6.326984,2.68069 -7.701882,2.24432 -0.940071,-0.29837 -0.754283,0.37306 0.540429,1.95308 1.187432,1.44911 1.721453,1.75096 1.721453,0.97304 0,-0.8533 0.933328,-1.30956 1.9183,-0.93778 0.775333,0.29266 0.929008,0.25817 1.058649,-0.23758 0.163644,-0.62577 2.547627,-1.44709 3.139173,-1.0815 0.747265,0.46184 -0.38255,3.83881 -1.181727,3.53213 -0.36104,-0.13854 -0.346413,-0.007 0.06993,0.62829 0.612604,0.93495 0.185398,2.37726 -0.704134,2.37726 -0.74484,0 -0.479226,0.42017 1.090202,1.72459 1.506776,1.25234 1.965113,1.27618 1.738444,0.0904 z m -1.390247,-6.52539 c 0.426141,-1.54336 0.06702,-1.85099 -1.430408,-1.22533 l -1.216037,0.5081 0.913795,0.95379 c 1.172608,1.22394 1.335527,1.2017 1.73265,-0.23656 z m 69.351493,7.44547 c -0.298717,-0.77844 1.56624,-2.10785 2.652292,-1.89064 1.73385,0.34677 4.5611,-2.893 3.47363,-3.98047 -0.68598,-0.68597 -1.45115,-0.41219 -3.3308,1.19178 -2.720066,2.32112 -4.772009,2.42425 -5.910457,0.29703 -0.81313,-1.51934 1.681722,-4.99189 4.958352,-6.90147 0.969165,-0.56482 2.727475,-0.51432 2.957435,0.0849 0.31711,0.82639 -1.09754,2.06232 -2.12528,1.85677 -0.957185,-0.19144 -3.525253,1.86856 -3.525253,2.82781 0,1.87206 2.075761,1.6688 4.000003,-0.3917 3.06257,-3.27944 6.91076,-1.96676 5.56355,1.89783 -0.67485,1.9359 -5.2096,5.47301 -7.01665,5.47301 -1.032576,0 -1.57551,-0.14875 -1.696822,-0.46489 z m 4.813302,-1.41537 c 3.82988,-3.21855 4.65826,-4.83034 3.25193,-6.32731 -1.08901,-1.1592 -2.42731,-0.7949 -4.95394,1.34851 -2.524569,2.14166 -4.292086,2.14557 -4.276473,0.009 0.0092,-1.25518 2.385929,-3.39041 3.773903,-3.39041 0.82317,0 1.9812,-0.80179 1.9812,-1.37173 0,-0.99444 -2.64461,0.11852 -4.7699,2.00736 -2.609306,2.31901 -3.168698,3.46785 -2.357354,4.84135 0.926531,1.56849 2.745117,1.32925 5.146124,-0.67698 2.59173,-2.16559 4.22113,-2.06069 4.22113,0.27177 0,1.06178 -2.7657,3.24643 -4.12506,3.25841 -1.197,0.0106 -2.274942,0.59104 -2.274942,1.2251 0,1.04863 2.536032,0.35694 4.383382,-1.19554 z m 6.35386,-7.15974 c -0.0675,-0.22 -0.19847,-0.94349 -0.2911,-1.60776 -0.27194,-1.95011 -2.48556,-6.15224 -3.24091,-6.15224 -0.92939,0 -0.96066,-0.955136 -0.0705,-2.152486 0.42833,-0.576132 1.17192,-1.731514 1.65242,-2.567514 0.97238,-1.691802 1.63648,-1.920275 2.09282,-0.72 0.35695,0.938854 4.83104,1.160822 7.09566,0.352029 1.95464,-0.698083 2.1698,-0.212903 0.97765,2.204637 -1.17734,2.387523 -1.74426,2.781808 -2.55686,1.778278 -0.79071,-0.97648 -1.41088,-0.61783 -2.78709,1.611808 -1.2887,2.087853 -1.3519,2.957859 -0.22653,3.118067 1.21265,0.172634 1.1423,0.876901 -0.27508,2.754221 -1.30496,1.7284 -2.11859,2.20239 -2.37051,1.38096 z m 2.05595,-1.54954 c 1.31929,-1.66902 1.3962,-2.21046 0.31402,-2.21046 -0.65079,0 -1.15767,-1.23 -0.84386,-2.047754 0.10122,-0.263785 -0.0723,-0.513158 -0.42035,-0.604182 -0.90032,-0.23544 -2.10112,-2.758576 -1.55047,-3.257885 0.59505,-0.539577 3.46747,-0.25623 3.46747,0.342042 0,0.576115 0.24678,0.566713 0.84571,-0.03222 0.71056,-0.710557 2.05886,-0.615168 2.26157,0.16 0.26547,1.015155 0.52659,0.779446 1.64174,-1.481952 1.02197,-2.072461 1.02917,-2.116147 0.30868,-1.873238 -0.40574,0.136793 -2.34675,0.311792 -4.31337,0.388889 l -3.57566,0.140179 -0.46157,-0.880944 -0.46158,-0.880944 -0.48429,0.774007 c -0.26635,0.425702 -1.0056,1.6048 -1.64276,2.620217 -1.35123,2.153405 -1.35132,2.153786 -0.52585,2.153786 0.93799,0 3.84738,5.793929 3.84738,7.661879 0,0.9426 0.1549,0.84816 1.59319,-0.97142 z m 0.005,-6.368278 C 111.57767,94.795523 111.33641,94.4 109.74112,94.4 c -1.38971,0 -1.49484,0.219798 -0.77289,1.615891 0.61319,1.185786 0.8977,1.183559 1.75022,-0.0137 z M 20.44592,97.281773 C 19.646038,96.859027 18.880523,95.979475 17.951629,94.415917 17.214517,93.175162 16.505892,92.16 16.376913,92.16 c -0.571415,0 -1.622186,1.029034 -1.715025,1.679546 -0.212393,1.488227 -1.051077,0.942028 -2.238592,-1.457898 -1.294475,-2.61609 -1.244966,-3.56391 0.147239,-2.818826 0.98052,0.524759 5.785697,-1.709046 6.077611,-2.825328 0.297087,-1.13606 1.085936,-0.720355 1.940327,1.022506 0.452966,0.924 1.405865,2.644112 2.117552,3.822474 1.747836,2.893939 1.816027,4.682684 0.216206,5.671427 -1.273548,0.787094 -1.044646,0.784518 -2.476305,0.02787 z m 2.648878,-0.53137 c 0.904464,-0.818528 0.74866,-2.60735 -0.382444,-4.390915 -0.532203,-0.839197 -1.472847,-2.529018 -2.090321,-3.755158 -1.012513,-2.010592 -1.742032,-2.597226 -1.742032,-1.400839 0,0.641837 -5.410259,3.113354 -6.317054,2.885763 -0.930231,-0.233472 -0.910326,0.07451 0.143716,2.223658 0.846783,1.726557 1.373338,2.228397 1.373338,1.308877 0,-0.53528 1.638321,-1.781789 2.341858,-1.781789 0.265683,0 1.001601,0.927238 1.635373,2.060528 1.759681,3.146602 3.574941,4.173539 5.037573,2.849875 z M 19.457139,94.8 c -0.26513,-0.308 -0.825779,-1.185904 -1.245886,-1.950896 l -0.763833,-1.390899 0.91423,-0.786387 c 1.319598,-1.135069 2.122133,-0.878285 3.150877,1.008182 1.033025,1.89432 1.085533,2.441568 0.302278,3.150403 -0.759305,0.687162 -1.750986,0.674375 -2.357666,-0.0304 z m 2.135523,-0.391888 c 0.551758,-0.609686 0.540418,-0.694019 -0.32273,-2.4 -0.954169,-1.885882 -1.086325,-1.971117 -2.170968,-1.400208 -1.356447,0.713981 -1.309886,1.211462 0.317477,3.392096 0.896056,1.200698 1.377271,1.290941 2.176221,0.408112 z m 13.718486,-71.86003 c -0.10382,-0.270556 0.02493,-0.738556 0.286122,-1.04 1.155616,-1.333737 3.878263,-9.974289 3.415415,-10.839124 -0.641188,-1.1980703 1.536291,-2.5347788 6.668896,-4.0938956 0.939059,-0.2852557 1.316234,0.5875642 0.597232,1.3820531 -0.285344,0.3153031 -0.518809,0.6724378 -0.518809,0.7936323 0,0.5054208 3.34895,6.1877762 4.044304,6.8622022 1.270218,1.231987 0.956755,1.613614 -1.985296,2.417014 -2.840561,0.775684 -3.318842,0.553866 -2.305264,-1.069133 0.912275,-1.460785 -0.363277,-1.794888 -2.961207,-0.775626 -2.626196,1.030352 -3.237207,1.7999 -2.577943,3.246827 0.464474,1.019411 0.0056,1.520761 -2.600902,2.841569 -1.786084,0.905075 -1.81889,0.909442 -2.062548,0.274481 z m 2.601767,-1.014744 c 1.676422,-0.822195 2.254458,-1.674356 1.466202,-2.161526 C 37.932819,18.477952 42.274432,15.04 44.849536,15.04 c 0.873802,0 1.47584,1.45361 0.950464,2.294871 -0.600169,0.961022 -0.309139,1.010965 1.9141,0.328468 2.247696,-0.690004 2.529142,-1.020099 1.633453,-1.91579 -0.726733,-0.726734 -3.907549,-6.5241356 -3.907549,-7.1219583 0,-0.2283581 0.225379,-0.6642393 0.500844,-0.9686249 0.895808,-0.989857 0.0374,-0.8926829 -3.192646,0.361416 -3.411853,1.3246867 -3.943837,1.7508467 -3.204893,2.5673712 0.427939,0.472869 -1.35105,6.139979 -3.532874,11.254247 -0.314077,0.736207 -0.179738,0.714553 1.90248,-0.306662 z M 40.640003,15.2684 c 0,-0.961253 1.51393,-4.233873 2.002099,-4.327885 0.544135,-0.104791 1.837901,1.99462 1.837901,2.982382 0,0.287941 -0.589731,0.776083 -1.36,1.125721 -1.586633,0.720199 -2.48,0.799371 -2.48,0.219782 z m 2.64,-0.612435 c 1.02554,-0.371261 1.08896,-0.796963 0.32,-2.148009 -0.790249,-1.388452 -1.222995,-1.234421 -1.944278,0.692044 -0.676106,1.805798 -0.619127,2.328928 0.216646,1.989085 0.290199,-0.118 0.923632,-0.357904 1.407632,-0.53312 z m 47.051409,7.246997 c -2.36033,-1.337876 -2.449908,-1.452761 -1.964106,-2.518982 0.635798,-1.395426 -0.0013,-2.179264 -2.599837,-3.198775 -2.59793,-1.019262 -3.873482,-0.685159 -2.961207,0.775626 1.013578,1.622999 0.535296,1.844817 -2.305264,1.069133 -2.942051,-0.8034 -3.255514,-1.185027 -1.985296,-2.417014 1.803229,-1.748957 4.157677,-6.6946204 3.620212,-7.6044767 -1.128519,-1.9104304 0.5076,-1.762961 5.550861,0.50032 1.896438,0.851071 2.643523,2.0640467 1.513232,2.4569007 -0.453619,0.157665 1.411347,5.982107 3.021578,9.436624 1.372729,2.94499 1.075005,3.181358 -1.890173,1.500644 z M 92.367975,21.6283 C 91.007553,19.552033 88.31993,11.090477 88.838775,10.517162 89.566481,9.7130573 89.287684,9.4783171 86.080282,8.1945782 82.364838,6.7074982 81.813635,6.6788608 82.640006,8.0158416 c 0.436493,0.7061974 -1.960195,5.8329664 -3.535571,7.5629674 -1.002029,1.100379 -0.822288,1.366524 1.388976,2.056691 2.316186,0.722913 2.386595,0.726586 2.386595,0.1245 0,-0.264 -0.144,-0.48 -0.32,-0.48 -0.448284,0 -0.400294,-1.391706 0.064,-1.856 0.586308,-0.586308 1.362343,-0.469112 3.593978,0.54276 2.325252,1.054319 2.877933,1.801769 2.590452,3.50335 -0.197114,1.166698 -0.177501,1.193399 1.49592,2.036573 2.221184,1.119172 2.737168,1.149581 2.063619,0.121617 z m -7.167968,-6.579682 c -1.561076,-0.708598 -1.659303,-1.148942 -0.654932,-2.935981 0.938602,-1.670014 1.50121,-1.473595 2.39601,0.836502 1.158269,2.990284 0.902055,3.29924 -1.741078,2.099479 z m 1.510259,-1.63333 c -0.346643,-0.87944 -0.630259,-1.66565 -0.630259,-1.747134 0,-0.581844 -0.923984,0.05522 -1.422384,0.980692 -0.697181,1.294582 -0.494372,1.679189 1.196489,2.269026 1.453316,0.506972 1.568538,0.30475 0.856154,-1.502584 z m -13.16251,3.067496 c -1.816099,-0.313197 -2.266838,-0.529506 -3.04,-1.45889 -3.288752,-3.95328 -5.363329,-6.2379439 -5.745511,-6.3273577 -0.784586,-0.1835571 -0.611085,4.7766607 0.191104,5.4635167 1.170346,1.002081 0.500595,1.46373 -2.28697,1.576371 -2.999862,0.121219 -3.669632,-0.258195 -2.553341,-1.446429 1.029088,-1.095414 1.05162,-8.312322 0.02765,-8.8603272 -1.493789,-0.7994515 -0.223187,-1.8102796 2.360343,-1.8777702 1.746819,-0.045633 2.04504,0.1864854 5.499194,4.2802454 1.71143,2.0283213 3.239504,3.687857 3.395731,3.687857 0.693677,0 0.31586,-5.3408182 -0.412006,-5.824103 -1.833181,-1.2171856 0.224854,-1.9047069 3.560307,-1.1893805 1.669066,0.3579504 2.341031,1.5466944 1.135751,2.0092038 -0.392407,0.1505805 -0.48,0.9389245 -0.48,4.3199997 0,3.381076 0.08759,4.16942 0.48,4.32 0.492685,0.189061 0.669824,1.348325 0.24,1.570645 -0.132,0.06827 -1.199511,-0.04134 -2.37225,-0.243581 z m 2.29225,-0.466883 c 0,-0.167255 -0.252,-0.444864 -0.56,-0.616909 C 74.339708,14.873753 74.247455,6.920615 75.17494,6.3413901 76.577622,5.4654016 75.983462,5.0422202 72.761007,4.622105 70.981429,4.3900992 70.225532,4.8328483 71.362422,5.4412931 c 0.747504,0.4000512 0.863622,6.3789529 0.128617,6.6224229 -0.191933,0.06358 -1.270077,-1.00475 -2.395878,-2.3740606 C 64.646232,4.2784323 64.498879,4.16 62.215102,4.16 c -2.132089,0 -2.822416,0.3780848 -1.744061,0.9552032 0.602493,0.3224448 0.648964,0.6550365 0.648964,4.6447968 0,3.98976 -0.04647,4.322352 -0.648964,4.644797 -1.128131,0.603758 -0.352598,0.955203 2.10785,0.955203 2.318295,0 3.282551,-0.545613 1.901114,-1.07572 C 63.787627,14.01859 63.770744,8 64.462376,8 c 0.41921,0 2.959472,2.708733 5.969703,6.36561 0.860298,1.045105 1.468122,1.460495 2.4,1.640174 1.827037,0.352277 3.007927,0.356249 3.007927,0.01012 z m -23.680002,0.01541 c 0,-0.380265 0.216,-0.774278 0.48,-0.875584 0.392406,-0.150581 0.48,-0.938925 0.48,-4.32 0,-3.3810759 -0.08759,-4.1694199 -0.48,-4.3200004 -1.20528,-0.4625094 -0.533315,-1.6512534 1.135751,-2.0092038 3.374944,-0.7237956 4.808746,-0.295088 3.537776,1.0577968 C 56.31147,6.6309562 56.284014,13.866963 57.280004,14.4 c 1.657207,0.886909 0.470365,1.771834 -2.80984,2.095057 -2.224304,0.219178 -2.31016,0.201942 -2.31016,-0.463753 z m 4.8,-0.424835 0.8,-0.307817 -0.72,-0.488357 C 55.979857,14.091226 55.918529,5.9973805 56.968968,5.4352032 58.627662,4.5474973 56.201793,4.27548 53.200004,5.0125821 52.420583,5.2039718 52.195518,6.08 52.925767,6.08 c 1.110138,0 1.27488,7.673504 0.194237,9.047319 -0.352,0.447495 -0.64,0.909277 -0.64,1.026181 0,0.274361 3.435476,-0.145127 4.48,-0.54703 z"
         id="path557" />
      <path
         style="fill:#e52121;stroke-width:0.32"
         d="m 24.960002,77.718214 c -2.781384,-0.755113 -2.824609,-0.798966 -3.70392,-3.757772 -0.451198,-1.518244 -1.386397,-4.488653 -2.07822,-6.600912 -1.613183,-4.925335 -1.674987,-4.63904 0.877835,-4.066375 3.826814,0.858455 8.47693,-0.741513 13.519173,-4.651549 3.394688,-2.632432 3.33495,-1.911945 0.799033,-9.637161 -1.576451,-4.802375 -2.123203,-6.87321 -1.894857,-7.176791 0.907888,-1.20702 5.77272,-4.650515 8.149796,-5.768704 3.091568,-1.454291 5.627936,-1.802937 8.805072,-1.210336 2.495901,0.465536 2.734756,0.770285 4.162957,5.311386 0.664237,2.112 1.548672,4.888448 1.965418,6.169888 C 56.352142,48.758592 56.48532,49.6 56.079886,49.6 c -0.132067,0 -1.224602,-0.205981 -2.427853,-0.457734 -4.559133,-0.953895 -10.190001,1.171216 -15.01203,5.66559 -1.580013,1.472653 -1.569296,1.586653 0.847674,9.018854 l 2.047673,6.296608 -1.036636,1.036637 c -4.827962,4.827962 -11.515516,7.650506 -15.538712,6.558259 z m 76.320008,0.161063 C 99.279921,77.441472 97.5941,76.939574 96.320007,76.402595 94.4529,75.615683 89.027687,71.538659 88.60073,70.60159 c -0.36529,-0.801728 3.497824,-13.354438 4.179808,-13.581766 0.190477,-0.06349 1.767485,0.906262 3.504465,2.155011 5.208727,3.744656 6.790297,4.348419 11.340097,4.329056 3.65809,-0.01558 3.77977,0.0059 3.62656,0.64 -0.86053,3.561421 -3.75849,12.186765 -4.2451,12.634906 -0.70203,0.646521 -4.48195,1.372912 -5.72655,1.10048 z M 90.510282,54.189379 c -5.390839,-4.539126 -10.48498,-6.182976 -15.870276,-5.121251 -1.725104,0.340109 -1.736052,0.577562 0.263584,-5.717181 0.892969,-2.811021 1.781971,-5.726192 1.975562,-6.47816 0.840294,-3.26399 8.590944,-3.184067 13.779831,0.142096 2.646999,1.696768 6.301024,4.591277 6.301024,4.991306 0,0.562589 -3.927437,12.558301 -4.24112,12.953811 -0.467741,0.589757 -0.681577,0.515146 -2.208605,-0.770621 z"
         id="path555" />
      <path
         style="fill:#000000;fill-opacity:1;stroke-width:0.32"
         d="M 55.383505,127.18881 C 16.965058,121.38497 -7.0204751,82.63272 4.8379479,45.524829 12.078345,22.867862 32.022079,6.0919427 55.721633,2.7233848 89.216215,-2.0373988 120.44315,20.517227 126.60347,53.92 c 1.48056,8.027984 0.72471,20.914704 -1.69862,28.96 -6.87004,22.80819 -25.734481,39.72894 -49.064844,44.0095 -4.152765,0.76193 -16.224961,0.93857 -20.456501,0.29931 z m 16.833345,-0.16069 c 27.82349,-3.68896 49.01117,-23.81243 54.06361,-51.34812 0.84671,-4.614534 0.84494,-16.486906 -0.003,-21.44 C 124.14398,41.781578 116.03935,26.503711 108.03891,19.859223 107.7083,19.584651 106.90578,18.856 106.25552,18.24 92.458286,5.1695987 69.587801,-0.54844134 50.020097,4.1801136 26.074141,9.9666774 8.5538583,28.189071 3.2735398,52.8 c -1.6348441,7.619811 -1.2517617,19.878141 0.8750218,28 2.5964831,9.915571 7.9906294,19.83638 14.3316954,26.35859 0.74786,0.76922 1.359745,1.49977 1.359745,1.62345 0,0.27042 4.795657,4.38127 7.359234,6.30834 12.439029,9.35059 29.802512,13.95502 45.017614,11.93774 z m -7.680048,-1.95952 c -0.666679,-0.37309 -0.703344,-1.50478 -0.0568,-1.75288 0.707216,-0.27138 0.693808,-5.93991 -0.01546,-6.52854 -1.12729,-0.93556 -0.438874,-1.73063 1.729834,-1.99782 2.566288,-0.31617 3.845011,0.64324 2.564291,1.92396 -0.572848,0.57285 -0.203926,5.68529 0.463475,6.42276 0.633517,0.70004 0.704589,1.63228 0.137844,1.8081 -0.995703,0.3089 -4.339425,0.39516 -4.823204,0.12442 z m 4.755664,-0.60876 c 0.115629,-0.18709 -0.04964,-0.62733 -0.367273,-0.97831 -0.766753,-0.84725 -1.147703,-6.12988 -0.507921,-7.04329 0.650746,-0.92907 0.187015,-1.23824 -1.857267,-1.23824 -2.052102,0 -2.58384,0.36967 -1.791347,1.24536 0.391654,0.43277 0.511347,1.26482 0.511347,3.55464 0,2.28982 -0.119693,3.12187 -0.511347,3.55464 -0.819488,0.90552 -0.243341,1.24536 2.111347,1.24536 1.211226,0 2.296836,-0.15308 2.412461,-0.34016 z m -13.432622,0.15363 c -3.282125,-0.51012 -5.09928,-1.74149 -4.913738,-3.32971 0.170532,-1.45973 3.329521,-0.8569 3.860733,0.73674 0.06045,0.18136 1.001645,0.39425 2.09154,0.47308 1.957683,0.14161 1.981626,0.13329 1.981626,-0.68902 0,-0.9012 0.01059,-0.89653 -3.34338,-1.4769 -3.095568,-0.53566 -4.307101,-2.20032 -3.378656,-4.64231 1.086973,-2.85895 10.562036,-1.59859 10.562036,1.40495 0,1.52418 -2.36897,1.65729 -3.332186,0.18724 -0.861862,-1.31537 -4.027815,-1.31343 -4.027815,0.002 0,0.86569 0.262573,0.98894 2.749834,1.29082 4.977156,0.60407 6.521642,4.42206 2.473136,6.11363 -1.205843,0.50383 -1.005427,0.50685 -4.72313,-0.071 z m 6.140161,-1.32506 c 1.467817,-1.94755 -0.445767,-4.01143 -4.076833,-4.39703 -2.32375,-0.24677 -2.883168,-0.55942 -2.883168,-1.61138 0,-1.63735 3.566666,-1.78951 4.680231,-0.19967 0.646688,0.92328 2.67977,0.97495 2.67977,0.0681 0,-1.91345 -6.500538,-3.65347 -8.752954,-2.34292 -2.92017,1.69908 -1.465188,4.59935 2.653289,5.28892 2.87553,0.48146 3.738305,1.30692 2.578378,2.46685 -0.381811,0.38181 -0.902531,0.60595 -1.169629,0.50345 -0.264784,-0.10161 -0.915878,-0.18474 -1.44687,-0.18474 -0.658676,0 -1.248516,-0.30303 -1.856327,-0.9537 -1.071635,-1.14719 -2.947786,-1.4808 -3.138522,-0.55808 -0.318499,1.54076 2.218756,2.67891 7.132635,3.19951 1.158864,0.12278 3.049699,-0.54916 3.6,-1.27932 z m 10.480001,0.65226 c -1.311489,-0.70178 -1.329396,-0.7455 -1.766337,-4.31239 -0.548275,-4.47576 -0.10336,-5.01983 5.025303,-6.1452 2.345764,-0.51472 3.878705,-0.33557 4.782855,0.55895 0.719379,0.71172 2.419565,6.52561 2.088147,7.14055 -1.246835,2.31346 -7.685034,4.0664 -10.129968,2.75809 z m 5.098038,-0.42634 c 2.781799,-0.61496 3.968397,-1.27276 4.681735,-2.59533 0.433415,-0.80359 -1.49528,-6.26268 -2.428675,-6.87426 -1.505453,-0.98641 -6.740513,-0.072 -8.262625,1.44322 l -0.911526,0.9074 0.431526,3.31998 0.431527,3.31998 1.12,0.54697 c 1.417488,0.69225 1.504637,0.69105 4.938038,-0.068 z m -2.744464,-1.28165 c -0.891049,-0.51948 -1.527366,-5.70644 -0.768147,-6.2616 0.764685,-0.55915 3.337978,-0.93568 3.728151,-0.5455 0.471408,0.47141 1.661523,5.14503 1.450313,5.69543 -0.330441,0.86111 -3.478861,1.65471 -4.410317,1.11167 z m 3.226589,-0.67372 c 1.171431,-0.40836 1.179399,-0.7818 0.0884,-4.1433 l -0.563321,-1.73566 -1.432621,0.0937 c -2.193335,0.14341 -2.421415,0.53741 -1.928612,3.33163 0.226471,1.28409 0.475213,2.4427 0.552762,2.5747 0.211008,0.35916 2.106314,0.2893 3.283392,-0.12104 z M 42.080003,120.8001 c -1.056,-0.43842 -1.956,-0.7978 -2,-0.79862 -0.520285,-0.01 0.07463,-1.67611 0.680605,-1.9065 0.544352,-0.20696 1.044755,-0.97174 1.76,-2.68984 1.217181,-2.9238 1.221015,-3.02815 0.119395,-3.25084 -2.19887,-0.44449 -2.48,-0.62214 -2.48,-1.56713 0,-1.66693 0.765213,-1.72334 3.890832,-0.28684 1.556042,0.71514 3.788673,1.6137 4.961399,1.99681 2.328727,0.76075 2.78354,1.31432 2.027652,2.46795 -0.631601,0.96394 -0.965604,0.94887 -2.497505,-0.11274 -1.202528,-0.83335 -1.269209,-0.84416 -1.686675,-0.27324 -0.759795,1.03909 -1.737895,4.45512 -1.655341,5.78134 0.101405,1.62908 -0.460016,1.74416 -3.120362,0.63965 z m 2.875914,0.16651 c 0.106525,-0.17236 0.04197,-0.59685 -0.14345,-0.94332 -0.263824,-0.49296 -0.108748,-1.2424 0.713181,-3.44661 1.192864,-3.19897 1.647005,-3.49535 3.387889,-2.21096 1.257923,0.92807 2.043085,0.77713 1.903779,-0.36597 -0.08384,-0.68798 -0.451632,-0.91972 -2.657312,-1.67439 -1.408,-0.48174 -3.616212,-1.35276 -4.907137,-1.93561 -1.948019,-0.87951 -2.396102,-0.98234 -2.635101,-0.60473 -0.67655,1.06894 -0.09242,1.78434 1.591252,1.94884 1.778979,0.1738 1.886134,0.79536 0.652304,3.78377 -0.78745,1.90726 -1.294343,2.71243 -1.837642,2.91899 -1.205578,0.45836 -0.720454,1.29112 1.216957,2.089 1.98241,0.81641 2.437571,0.89034 2.71528,0.44099 z m 41.367584,-0.55547 c -0.958336,-0.14539 -1.888406,-1.20176 -1.636362,-1.85858 0.271428,-0.70732 1.90914,-1.18972 3.262685,-0.96104 1.987396,0.33577 4.421082,-1.08166 3.968807,-2.31152 -0.228022,-0.62006 -1.007379,-0.48555 -3.482128,0.601 -2.187072,0.96024 -2.342474,0.98392 -3.68,0.56079 -1.917729,-0.60669 -2.664609,-2.45189 -1.683018,-4.15799 1.721968,-2.99295 9.779191,-5.13202 9.721623,-2.58094 -0.02224,0.98556 -2.053671,1.99003 -3.171383,1.56814 -1.216614,-0.45922 -3.627379,0.7765 -3.483782,1.78574 0.150028,1.05442 1.228368,1.02982 3.423181,-0.0781 3.273379,-1.6524 6.116883,-0.81367 6.116883,1.80426 0,1.75158 -5.82337,6.00397 -7.955271,5.80917 -0.288601,-0.0264 -0.919158,-0.10778 -1.401235,-0.18091 z m 5.215549,-1.86602 c 3.820372,-1.91129 4.671841,-3.72852 2.680196,-5.72017 -0.797424,-0.79742 -2.457793,-0.59567 -4.957793,0.60243 -1.81351,0.8691 -2.442934,1.0366 -2.925251,0.77847 -1.828058,-0.97834 0.895981,-3.68989 3.31985,-3.30462 1.502166,0.23877 2.576506,-0.30772 2.443373,-1.24288 -0.181594,-1.27557 -2.265056,-1.10937 -5.45393,0.43505 -3.378724,1.63637 -4.130103,2.65451 -3.345261,4.5329 0.774288,1.85313 2.319552,2.12939 4.970902,0.88867 2.259303,-1.05725 3.296705,-1.18849 3.876126,-0.49033 1.071334,1.29088 -1.630743,3.26797 -4.018938,2.94063 -2.438833,-0.33427 -4.383991,1.39913 -2.128317,1.89662 0.484,0.10675 1.024,0.24069 1.2,0.29764 0.52975,0.17141 1.46504,-0.17658 4.339043,-1.61441 z m -58.899047,-2.64545 c -1.966416,-1.33981 -2.447964,-2.68203 -1.034223,-2.88268 0.95917,-0.13614 3.949381,-4.49342 3.710508,-5.40687 -0.293844,-1.12367 0.742064,-1.83033 1.732131,-1.18161 0.448979,0.29418 1.296758,0.81833 1.883955,1.16479 1.323024,0.7806 1.376912,1.67033 0.139911,2.31001 -1.194509,0.6177 -3.313268,4.34696 -3.358906,5.91206 -0.0459,1.57418 -0.85416,1.59635 -3.073376,0.0843 z m 2.654317,-0.21435 c -0.08867,-1.19444 2.522992,-5.7029 3.583485,-6.18609 1.141363,-0.52004 1.0076,-0.88847 -0.717802,-1.97704 -1.762541,-1.11201 -2.518435,-1.11711 -2.394397,-0.0162 0.119974,1.06486 -2.957536,5.70471 -3.870489,5.8354 -1.34399,0.19238 -0.959655,1.10273 0.968329,2.29361 2.104355,1.29983 2.524282,1.30851 2.430874,0.0503 z M 97.599,113.05128 c -1.331745,-0.93279 0.697888,-3.22049 2.50505,-2.82357 0.98226,0.21574 3.77005,-1.96543 3.50983,-2.74608 -0.38512,-1.15539 -1.16007,-1.04534 -2.86728,0.40717 -3.046832,2.59227 -4.488916,2.87729 -6.058205,1.19736 -1.685303,-1.80412 -1.138865,-3.34254 2.256444,-6.35271 2.92417,-2.59247 4.957231,-3.141789 5.799971,-1.5671 0.48276,0.90203 -1.31048,2.66192 -2.42685,2.38173 -0.851447,-0.2137 -3.357953,1.69562 -3.357953,2.5579 0,1.33712 1.232215,1.09111 3.276703,-0.65419 2.66401,-2.27417 4.28039,-2.63586 5.70027,-1.27553 1.38922,1.33096 1.17251,3.70349 -0.46619,5.10374 -0.41195,0.352 -1.56699,1.34798 -2.56677,2.21329 -2.05331,1.77715 -4.123929,2.38525 -5.30502,1.55799 z m 5.67723,-2.31654 c 3.29257,-2.8499 4.06713,-4.73966 2.588,-6.31412 -1.18069,-1.25678 -3.42891,-0.7539 -5.22422,1.16854 -1.924242,2.0605 -4.000003,2.26376 -4.000003,0.3917 0,-0.95925 2.568068,-3.01925 3.525253,-2.82781 1.02774,0.20555 2.44239,-1.03038 2.12528,-1.85677 -0.22996,-0.59926 -1.98827,-0.64976 -2.957435,-0.0849 -3.27663,1.90958 -5.771482,5.38213 -4.958352,6.90147 1.138448,2.12722 3.190391,2.02409 5.910457,-0.29703 1.87965,-1.60397 2.64482,-1.87775 3.3308,-1.19178 1.08747,1.08747 -1.73978,4.32724 -3.47363,3.98047 -1.086052,-0.21721 -2.951009,1.1122 -2.652292,1.89064 0.520809,1.35722 3.085962,0.57679 5.786142,-1.76037 z m -76.015562,1.22298 c -1.792458,-1.4581 -2.190277,-2.6265 -1.020666,-2.99772 1.011109,-0.32091 0.700054,-1.16781 -0.982929,-2.67619 l -1.557812,-1.39619 -0.372973,0.81858 c -0.608232,1.33493 -1.218727,1.30694 -2.574247,-0.118 -2.696165,-2.83426 -2.813307,-3.8282 -0.451177,-3.8282 2.737187,0 6.282278,-0.9792 6.603455,-1.823958 0.542286,-1.42632 1.173471,-1.239117 3.58922,1.064528 2.596825,2.47632 2.898592,3.13626 1.686607,3.68848 -0.540056,0.24606 -0.926557,0.77037 -1.12277,1.52309 -0.469354,1.80056 -0.919772,4.8935 -0.866174,5.94786 0.0751,1.4774 -0.952918,1.40644 -2.930534,-0.20228 z m 2.593172,0.0323 c -0.07628,-0.91084 0.430315,-4.38561 0.898673,-6.16406 0.217968,-0.82767 0.5692,-1.3089 1.103606,-1.51208 1.106664,-0.42075 1.043314,-0.55359 -1.438427,-3.01631 -2.212047,-2.195102 -3.21769,-2.492232 -3.21769,-0.95071 0,0.23567 -0.576,0.57803 -1.28,0.76082 -0.704,0.18278 -1.892,0.49214 -2.64,0.68746 -0.748,0.19532 -1.996161,0.37532 -2.77369,0.4 -1.876783,0.0596 -1.899085,0.38404 -0.162822,2.36885 1.567618,1.79202 2.201826,2.05858 2.468809,1.03764 0.352367,-1.34746 1.20517,-1.14268 2.994147,0.71895 1.749953,1.82102 1.941867,2.5814 0.73142,2.89794 -1.00556,0.26296 -0.715303,1.04786 0.902136,2.43952 1.682865,1.44795 2.516905,1.56266 2.413838,0.33198 z m -3.447895,-6.70381 -0.913795,-0.95379 1.216037,-0.5081 c 1.497426,-0.62566 1.856549,-0.31803 1.430408,1.22533 -0.397123,1.43826 -0.560042,1.4605 -1.73265,0.23656 z m 1.376313,-0.59127 c 0.108094,-0.7346 -0.400348,-0.90148 -1.201679,-0.39442 -0.385054,0.24365 -0.390229,0.37409 -0.03197,0.80576 0.548411,0.66079 1.103109,0.47584 1.233653,-0.41134 z m 80.771092,-0.42959 c -0.21634,-0.21634 -0.39121,-0.76054 -0.38861,-1.20934 0.0102,-1.75932 -2.22809,-6.332672 -3.19388,-6.52583 -1.41166,-0.28233 -1.32997,-0.835111 0.58725,-3.973847 1.89955,-3.109808 2.49982,-3.505651 3.39125,-2.236323 0.56716,0.807597 6.46972,0.987702 7.3882,0.225437 0.57786,-0.479581 1.745,-0.07795 1.73233,0.596128 -0.014,0.746256 -2.30296,4.95519 -2.77455,5.101891 -0.21157,0.06581 -0.63958,-0.178042 -0.95112,-0.541898 -0.84465,-0.986476 -1.17867,-0.834662 -2.4818,1.128 -1.27126,1.91465 -1.30075,2.578551 -0.12198,2.745623 1.24494,0.176445 1.08312,1.295679 -0.46123,3.190179 -1.47407,1.80827 -2.08267,2.14317 -2.72586,1.49998 z m 2.47441,-1.7263 c 1.41738,-1.87732 1.48773,-2.581587 0.27508,-2.754221 -1.12537,-0.160208 -1.06217,-1.030214 0.22653,-3.118067 1.37621,-2.229638 1.99638,-2.588288 2.78709,-1.611808 0.8126,1.00353 1.37952,0.609245 2.55686,-1.778278 1.19215,-2.41754 0.97699,-2.90272 -0.97765,-2.204637 -2.26462,0.808793 -6.73871,0.586825 -7.09566,-0.352029 -0.45634,-1.200275 -1.12044,-0.971802 -2.09282,0.72 -0.4805,0.836 -1.22409,1.991382 -1.65242,2.567514 -0.89019,1.19735 -0.85892,2.152486 0.0705,2.152486 0.75535,0 2.96897,4.20213 3.24091,6.15224 0.36555,2.62137 0.82418,2.66044 2.66161,0.2268 z m -2.05953,-6.523149 C 108.24628,94.619798 108.35141,94.4 109.74112,94.4 c 1.59529,0 1.83655,0.395523 0.97733,1.602182 -0.85252,1.197268 -1.13703,1.199495 -1.75022,0.0137 z M 110.70983,95.12 c 0.006,-0.233373 -0.38973,-0.4 -0.94982,-0.4 -1.09452,0 -1.16793,0.200733 -0.44885,1.227363 0.53471,0.763405 1.37078,0.268839 1.39867,-0.827363 z m -90.432983,2.578928 c -0.570416,-0.28439 -1.467681,-1.249718 -2.08,-2.237776 -1.716744,-2.770195 -1.705571,-2.75864 -2.441448,-2.525082 -0.426115,0.135242 -0.712707,0.534016 -0.775618,1.079216 -0.07874,0.68242 -0.268431,0.864714 -0.89978,0.864714 -1.251455,0 -3.622847,-4.674294 -2.792599,-5.504544 0.463212,-0.463213 0.672971,-0.494234 1.183994,-0.175094 0.86026,0.537241 5.05899,-1.431018 5.794498,-2.716317 0.876804,-1.532215 1.439599,-1.295165 2.654992,1.118281 0.610368,1.212029 1.624496,3.057338 2.253616,4.100682 2.417725,4.009603 0.612133,7.745789 -2.897655,5.99592 z m 2.645384,-0.445027 c 1.599821,-0.988743 1.53163,-2.777488 -0.216206,-5.671427 C 21.994338,90.404112 21.041439,88.684 20.588473,87.76 c -0.854391,-1.742861 -1.64324,-2.158566 -1.940327,-1.022506 -0.291914,1.116282 -5.097091,3.350087 -6.077611,2.825328 -1.392205,-0.745084 -1.441714,0.202736 -0.147239,2.818826 1.187515,2.399926 2.026199,2.946125 2.238592,1.457898 0.09284,-0.650512 1.14361,-1.679546 1.715025,-1.679546 0.128979,0 0.837604,1.015162 1.574723,2.255917 0.928893,1.563558 1.694409,2.44311 2.49429,2.865856 1.431659,0.756646 1.202757,0.759222 2.476305,-0.02787 z M 19.416441,94 c -1.627363,-2.180634 -1.673924,-2.678115 -0.317477,-3.392096 1.084643,-0.570909 1.216799,-0.485674 2.170968,1.400208 1.337944,2.6444 -0.162873,4.25728 -1.853491,1.991888 z m 2.023561,-0.286986 c 0,-0.736105 -1.184566,-3.153014 -1.545343,-3.153014 -1.122352,0 -1.466482,0.883216 -0.864378,2.218445 0.85722,1.900973 2.409721,2.503085 2.409721,0.934569 z M 25.436776,78.394781 C 25.326228,78.21591 25.114738,78.144368 24.966798,78.235798 24.454969,78.552128 21.759431,77.149795 21.458196,76.410477 21.294499,76.008714 20.706357,74.168 20.151215,72.32 18.515872,66.876144 17.236375,63.222522 16.845333,62.88 16.6444,62.704 16.522878,62.122131 16.575282,61.586957 c 0.05461,-0.557719 -0.73076,-3.491447 -1.84,-6.873251 -1.064404,-3.245114 -1.935281,-5.925328 -1.935281,-5.956036 0,-0.155555 7.485074,0.220759 7.648724,0.384541 0.105202,0.105287 -1.320724,0.166624 -3.168724,0.136307 -1.848,-0.03034 -3.454055,-0.04239 -3.569012,-0.02682 -0.22002,0.02979 1.086079,4.516032 3.03604,10.428304 1.510824,4.58081 3.477689,10.809991 4.509053,14.280442 0.887034,2.984794 0.911583,3.008816 3.86392,3.781142 4.035908,1.055789 10.81666,-1.899622 15.559342,-6.781584 0.641171,-0.66 1.252442,-1.2 1.358381,-1.2 0.105936,0 1.21767,-0.792 2.470515,-1.76 1.252848,-0.968 2.335021,-1.76 2.404832,-1.76 0.334122,0 -0.01898,0.314768 -1.802742,1.607008 -1.061322,0.768871 -2.271853,1.846567 -2.690071,2.39488 -3.350778,4.393095 -15.65629,10.300336 -16.983483,8.152893 z M 98.249288,77.732067 C 94.660241,76.458643 89.488557,72.911546 87.217959,70.166022 86.523831,69.32671 86.317114,68.964 86.758583,69.36 c 0.441469,0.396 0.968326,0.72 1.17079,0.72 0.202464,0 0.519888,0.283587 0.705386,0.630195 0.354633,0.66264 4.652659,4.053143 6.464288,5.099363 3.653364,2.109824 8.553533,2.641175 11.368253,1.232717 0.98408,-0.492425 1.58831,-2.076723 4.30288,-11.282275 0.3633,-1.232 0.86064,-2.693763 1.10519,-3.248362 0.24455,-0.554598 0.44464,-1.162934 0.44464,-1.351856 0,-0.188924 0.80517,-2.800979 1.78928,-5.804569 1.76904,-5.399322 1.9436,-6.66817 0.86016,-6.252413 -1.07935,0.414182 -5.74982,0.220957 -6.85248,-0.283501 -0.59233,-0.270989 -0.71696,-0.386189 -0.27696,-0.256 0.44,0.130186 2.564,0.22857 4.72,0.218634 2.81025,-0.01296 3.92,0.0889 3.92,0.359769 0,0.207812 -0.57732,2.087943 -1.28292,4.178071 -0.70561,2.090125 -1.57689,4.880227 -1.93617,6.200227 -0.35929,1.32 -0.81419,2.723782 -1.0109,3.119517 -0.1967,0.395734 -0.26717,0.809993 -0.15659,0.920573 0.11058,0.110579 8e-5,0.589696 -0.24556,1.064704 -0.24563,0.475008 -0.94918,2.580752 -1.56344,4.679427 -2.02459,6.917203 -2.46594,7.835523 -4.08065,8.490557 -1.92469,0.780784 -5.66017,0.751334 -7.954492,-0.06271 z m -13.791646,-9.93191 c -0.6037,-0.549917 -0.808026,-0.851255 -0.454055,-0.669642 0.629924,0.323197 2.00376,1.669485 1.703652,1.669485 -0.08358,0 -0.645898,-0.44993 -1.249597,-0.999843 z M 81.267424,65.79609 c -2.015146,-1.204906 -4.35418,-2.034701 -6.227418,-2.209239 l -1.28,-0.119264 1.309904,-0.0538 c 1.945286,-0.07988 8.130096,2.456128 8.130096,3.333654 0,0.200832 -0.03168,0.185236 -1.932582,-0.951356 z M 47.520004,65.92 c 0.108774,-0.176 0.269769,-0.32 0.357769,-0.32 0.088,0 0.071,0.144 -0.03777,0.32 -0.108775,0.176 -0.26977,0.32 -0.35777,0.32 -0.088,0 -0.071,-0.144 0.03777,-0.32 z m 0.8,-0.469219 c 0,-0.728499 3.588342,-1.886989 6.08,-1.962919 l 2.72,-0.08289 -2.75103,0.267309 c -1.929812,0.18751 -3.243274,0.516742 -4.400001,1.102902 -0.906934,0.459578 -1.648969,0.763594 -1.648969,0.675594 z m 12.010964,-1.205245 c -0.345968,-0.195034 -1.065968,-0.470134 -1.6,-0.611334 -0.708349,-0.187293 -0.55985,-0.210516 0.549037,-0.08586 1.931075,0.217085 1.975497,0.682896 -0.704471,-7.387417 -1.223456,-3.684259 -2.161347,-6.761773 -2.084198,-6.838922 0.224448,-0.224451 0.896067,1.619031 3.047184,8.363991 2.014051,6.315203 2.135005,7.31638 0.792448,6.559542 z m 7.95066,-0.390157 c -0.240016,-0.625472 4.561984,-15.438441 4.896365,-15.104061 0.08261,0.08262 -0.86864,3.22976 -2.113892,6.993658 -2.357145,7.124704 -2.5152,7.79799 -1.880275,8.009632 0.237024,0.07901 0.171197,0.20953 -0.172115,0.34127 -0.343559,0.131837 -0.622461,0.03996 -0.730083,-0.240499 z m 2.202777,-0.405005 c 0.48642,-0.07355 1.20642,-0.07159 1.600001,0.0044 0.39358,0.07596 -0.0044,0.136135 -0.884401,0.133735 -0.88,-0.0026 -1.202019,-0.06455 -0.7156,-0.138103 z M 21.226668,48.746666 c 0.117334,-0.117332 0.309334,-0.117332 0.426667,0 C 21.770668,48.864 21.674668,48.96 21.440002,48.96 c -0.234667,0 -0.330667,-0.096 -0.213334,-0.213334 z m 0.992359,-0.39273 c 0.09889,-0.160003 0.644776,-0.453011 1.213082,-0.651123 1.198007,-0.417626 0.835602,-0.0064 -0.492493,0.558838 -0.495213,0.210762 -0.819477,0.252291 -0.720589,0.09228 z m 82.222763,-1.104077 c -1.07703,-0.580582 -3.05561,-1.945312 -4.39684,-3.032733 C 98.703704,43.129709 97.460904,42.24 97.283166,42.24 c -0.177738,0 -0.323159,-0.11816 -0.323159,-0.262579 0,-0.746179 -7.535357,-6.037389 -9.6,-6.740967 -1.90618,-0.649577 -6.674292,-0.793964 -8.400001,-0.254368 -1.215872,0.380183 -1.52,0.392116 -1.52,0.05965 0,-0.721027 4.95682,-1.245513 7.731706,-0.818099 3.399751,0.523664 7.145274,2.6768 11.506737,6.61472 3.739911,3.376723 6.258441,5.302323 8.404851,6.426119 1.07619,0.563459 1.81271,1.028188 1.63671,1.032732 -0.176,0.0045 -1.2012,-0.466764 -2.27822,-1.047347 z M 73.280006,47.84 c 0,-0.088 0.072,-0.16 0.16,-0.16 0.088,0 0.16,0.072 0.16,0.16 0,0.088 -0.072,0.16 -0.16,0.16 -0.088,0 -0.16,-0.072 -0.16,-0.16 z M 24.640002,47.2 c 0,-0.088 0.072,-0.16 0.16,-0.16 0.088,0 0.16,0.072 0.16,0.16 0,0.088 -0.072,0.16 -0.16,0.16 -0.088,0 -0.16,-0.072 -0.16,-0.16 z m 31.040002,-0.16 c 0,-0.234666 0.096,-0.330666 0.213335,-0.213334 0.117331,0.117334 0.117331,0.309334 0,0.426668 -0.117335,0.117332 -0.213335,0.02133 -0.213335,-0.213334 z M 25.280002,46.88 c 0,-0.088 0.072,-0.16 0.16,-0.16 0.088,0 0.16,0.072 0.16,0.16 0,0.088 -0.072,0.16 -0.16,0.16 -0.088,0 -0.16,-0.072 -0.16,-0.16 z m 48.320004,-0.16 c 0,-0.234666 0.096,-0.330666 0.213334,-0.213334 0.117331,0.117334 0.117331,0.309334 0,0.426668 -0.117334,0.117332 -0.213334,0.02133 -0.213334,-0.213334 z M 26.080002,46.49095 c 0.176,-0.169065 1.256,-1.00407 2.4,-1.855568 1.144,-0.851494 2.872,-2.356614 3.84,-3.34471 3.411322,-3.482134 8.241736,-6.415066 11.713739,-7.112342 1.708387,-0.343095 8.434477,0.180124 7.992842,0.621756 -0.09023,0.09023 -0.0042,0.46913 0.191242,0.841988 0.343555,0.655507 0.334377,0.659376 -0.277472,0.117004 -1.893546,-1.678518 -7.417089,-1.532086 -11.311511,0.299872 -2.312727,1.087917 -7.112708,4.465312 -8.148839,5.733738 -0.499765,0.611811 -5.07417,4.156349 -5.941769,4.604058 -0.428028,0.220876 -0.634232,0.26327 -0.458232,0.0942 z M 55.360004,46.08 c 0,-0.234666 0.096,-0.330666 0.213335,-0.213334 0.117331,0.117334 0.117331,0.309334 0,0.426668 -0.117335,0.117332 -0.213335,0.02133 -0.213335,-0.213334 z M 73.920006,45.6 c 0,-0.088 0.072,-0.16 0.16,-0.16 0.088,0 0.16,0.072 0.16,0.16 0,0.088 -0.072,0.16 -0.16,0.16 -0.088,0 -0.16,-0.072 -0.16,-0.16 z M 55.040004,44.96 c 0,-0.088 0.072,-0.16 0.16,-0.16 0.088,0 0.16,0.072 0.16,0.16 0,0.088 -0.072,0.16 -0.16,0.16 -0.088,0 -0.16,-0.072 -0.16,-0.16 z m 19.200002,-0.32 c 0,-0.088 0.072,-0.16 0.16,-0.16 0.088,0 0.16,0.072 0.16,0.16 0,0.088 -0.072,0.16 -0.16,0.16 -0.088,0 -0.16,-0.072 -0.16,-0.16 z M 54.720004,44 c 0,-0.088 0.072,-0.16 0.16,-0.16 0.088,0 0.16,0.072 0.16,0.16 0,0.088 -0.072,0.16 -0.16,0.16 -0.088,0 -0.16,-0.072 -0.16,-0.16 z m 19.840002,-0.32 c 0,-0.088 0.072,-0.16 0.16,-0.16 0.088,0 0.16,0.072 0.16,0.16 0,0.088 -0.072,0.16 -0.16,0.16 -0.088,0 -0.16,-0.072 -0.16,-0.16 z M 54.400004,43.04 c 0,-0.088 0.072,-0.16 0.16,-0.16 0.088,0 0.16,0.072 0.16,0.16 0,0.088 -0.072,0.16 -0.16,0.16 -0.088,0 -0.16,-0.072 -0.16,-0.16 z m 20.480002,-0.32 c 0,-0.088 0.072,-0.16 0.16,-0.16 0.088,0 0.16,0.072 0.16,0.16 0,0.088 -0.072,0.16 -0.16,0.16 -0.088,0 -0.16,-0.072 -0.16,-0.16 z M 54.080004,42.08 c 0,-0.088 0.072,-0.16 0.16,-0.16 0.088,0 0.16,0.072 0.16,0.16 0,0.088 -0.072,0.16 -0.16,0.16 -0.088,0 -0.16,-0.072 -0.16,-0.16 z m -0.32,-0.96 c 0,-0.088 0.072,-0.16 0.16,-0.16 0.088,0 0.16,0.072 0.16,0.16 0,0.088 -0.072,0.16 -0.16,0.16 -0.088,0 -0.16,-0.072 -0.16,-0.16 z m 21.760002,-0.64 c 0,-0.088 0.072,-0.16 0.16,-0.16 0.088,0 0.16,0.072 0.16,0.16 0,0.088 -0.072,0.16 -0.16,0.16 -0.088,0 -0.16,-0.072 -0.16,-0.16 z m 0.32,-0.96 c 0,-0.088 0.072,-0.16 0.16,-0.16 0.088,0 0.16,0.072 0.16,0.16 0,0.088 -0.072,0.16 -0.16,0.16 -0.088,0 -0.16,-0.072 -0.16,-0.16 z M 53.120004,39.04 c 0,-0.234666 0.096,-0.330666 0.213335,-0.213334 0.117331,0.117334 0.117331,0.309334 0,0.426668 -0.117335,0.117332 -0.213335,0.02133 -0.213335,-0.213334 z m -0.32,-0.96 c 0,-0.234666 0.096,-0.330666 0.213334,-0.213334 0.117332,0.117334 0.117332,0.309334 0,0.426668 -0.117334,0.117332 -0.213334,0.02133 -0.213334,-0.213334 z m 23.680002,-0.32 c 0,-0.234666 0.096,-0.330666 0.213334,-0.213334 0.117332,0.117334 0.117332,0.309334 0,0.426668 -0.117334,0.117332 -0.213334,0.02133 -0.213334,-0.213334 z m -24.000002,-0.8 c 0,-0.088 0.072,-0.16 0.16,-0.16 0.088,0 0.16,0.072 0.16,0.16 0,0.088 -0.072,0.16 -0.16,0.16 -0.088,0 -0.16,-0.072 -0.16,-0.16 z m 24.320002,-0.32 c 0,-0.088 0.072,-0.16 0.16,-0.16 0.088,0 0.16,0.072 0.16,0.16 0,0.088 -0.072,0.16 -0.16,0.16 -0.088,0 -0.16,-0.072 -0.16,-0.16 z M 34.975043,22.826107 c -0.112682,-0.293641 0.04307,-0.965913 0.346115,-1.493937 1.184493,-2.063858 3.802531,-9.856483 3.434925,-10.22409 -0.594301,-0.594302 -0.401574,-1.7835162 0.371088,-2.289784 1.295399,-0.8487786 6.878778,-2.8351859 7.403335,-2.6338954 0.639773,0.2455037 0.6608,1.438018 0.0375,2.1267549 -0.526186,0.5814301 2.451315,6.4218625 3.730806,7.3180525 1.208506,0.846471 0.613053,1.746536 -1.658809,2.507398 -3.440193,1.152142 -4.869146,0.753349 -3.699111,-1.032349 0.833213,-1.271645 -0.02147,-1.50481 -2.229597,-0.60825 -2.052227,0.833262 -2.85472,1.592685 -2.509491,2.374811 0.666416,1.509785 0.339142,2.056809 -1.961802,3.279065 -2.527434,1.342568 -2.973786,1.435014 -3.264959,0.676224 z m 2.398653,-0.552506 c 2.606486,-1.320808 3.065376,-1.822158 2.600902,-2.841569 -0.659264,-1.446927 -0.04825,-2.216475 2.577943,-3.246827 2.59793,-1.019262 3.873482,-0.685159 2.961207,0.775626 -1.013578,1.622999 -0.535297,1.844817 2.305264,1.069133 2.942051,-0.8034 3.255514,-1.185027 1.985296,-2.417014 -0.695354,-0.674426 -4.044304,-6.3567814 -4.044304,-6.8622022 0,-0.1211945 0.233465,-0.4783292 0.518809,-0.7936323 C 46.997815,7.1626266 46.62064,6.2898067 45.681581,6.5750624 40.548976,8.1341792 38.371497,9.4708877 39.012685,10.668958 39.475533,11.533793 36.752886,20.174345 35.59727,21.508082 35.170086,22.001108 35.226595,23.04 35.6806,23.04 c 0.09937,0 0.861267,-0.34488 1.693098,-0.766399 z m 3.812035,-7.131785 c -0.251424,-0.413978 1.057255,-3.62204 1.476637,-3.619793 0.417923,0.0022 1.497635,1.727174 1.497635,2.392605 0,0.23252 -0.396,0.566122 -0.88,0.741337 -0.484,0.175216 -1.117433,0.41512 -1.407632,0.53312 -0.290198,0.118 -0.599187,0.09673 -0.68664,-0.04727 z m 1.646522,-0.77312 c 1.169926,-0.407839 1.15368,-0.358283 0.519533,-1.584587 C 42.662538,11.451247 42.547382,11.540392 41.781168,14 c -0.25976,0.833847 -0.271469,0.82974 1.051085,0.368696 z m 47.313204,7.843817 c -2.379332,-1.221106 -2.733543,-1.689577 -2.186045,-2.891206 0.552217,-1.211985 -1.19e-4,-1.861444 -2.400218,-2.822269 -2.317488,-0.927754 -3.04569,-0.715873 -2.164058,0.629665 1.088323,1.660994 0.0232,2.07057 -3.159962,1.215088 -2.907155,-0.781308 -3.638371,-1.716898 -2.154278,-2.756397 1.408505,-0.986556 4.160838,-6.6472734 3.627661,-7.4610049 C 81.155401,7.2821674 81.400448,6.08 82.125686,6.08 c 1.018528,0 7.17179,2.6367542 7.608599,3.2603843 0.450087,0.6425914 0.350685,1.5120927 -0.216563,1.8943387 -0.335162,0.225851 2.789978,9.157467 3.467639,9.910474 0.250054,0.277858 0.454646,0.889858 0.454646,1.36 0,1.144995 -0.596477,1.092005 -3.29455,-0.292684 z m 2.813117,0.509805 c 0.107987,-0.174725 -0.223658,-1.218725 -0.736989,-2.32 -1.610231,-3.454517 -3.475197,-9.278959 -3.021578,-9.436624 1.130291,-0.392854 0.383206,-1.6058297 -1.513232,-2.4569007 -5.043261,-2.263281 -6.67938,-2.4107504 -5.550861,-0.50032 0.537465,0.9098563 -1.816983,5.8555197 -3.620212,7.6044767 -1.270218,1.231987 -0.956755,1.613614 1.985296,2.417014 2.84056,0.775684 3.318842,0.553866 2.305264,-1.069133 -0.912275,-1.460785 0.363277,-1.794888 2.961207,-0.775626 2.598563,1.019511 3.235635,1.803349 2.599837,3.198775 -0.485802,1.066221 -0.396224,1.181106 1.964106,2.518982 2.179744,1.235516 2.339222,1.285254 2.627162,0.819356 z m -7.104462,-7.804446 c -1.690861,-0.589837 -1.89367,-0.974444 -1.196489,-2.269026 0.4984,-0.925477 1.422384,-1.562536 1.422384,-0.980692 0,0.08148 0.283616,0.867694 0.630259,1.747134 0.712384,1.807334 0.597162,2.009556 -0.856154,1.502584 z M 86.541687,14 C 86.419891,13.604 86.13993,12.928838 85.919555,12.499639 l -0.400684,-0.780361 -0.543028,1.050099 c -0.608214,1.176158 -0.61279,1.160819 0.475882,1.595393 C 86.63473,14.836997 86.783776,14.787116 86.541687,14 Z M 51.855038,16.668092 C 51.476023,15.959893 51.880958,14.72 52.491262,14.72 c 0.181856,0 0.308742,-1.643911 0.308742,-4 0,-3.1923382 -0.08938,-4 -0.442678,-4 -1.349517,0 -0.369047,-2.5261379 1.002678,-2.583361 0.308,-0.012848 1.352,-0.1390144 2.32,-0.2803686 2.39777,-0.3501395 3.624423,0.9135635 1.92,1.977993 -0.582918,0.364039 -0.64,0.7462486 -0.64,4.2853896 0,3.616582 0.04433,3.897295 0.64,4.053067 0.814801,0.213074 0.871085,1.685763 0.08,2.093141 -0.308,0.158608 -1.352,0.387726 -2.32,0.50915 -0.968,0.121425 -2.072169,0.297362 -2.453706,0.390972 -0.487686,0.119653 -0.799897,-0.02821 -1.05126,-0.497891 z m 5.495126,-0.705641 C 58.106132,15.55787 58.073201,14.824506 57.280004,14.4 56.284014,13.866963 56.31147,6.6309562 57.313531,5.5643133 58.584501,4.2114285 57.150699,3.782721 53.775755,4.5065165 c -1.669066,0.3579504 -2.341031,1.5466944 -1.135751,2.0092038 0.392406,0.1505805 0.48,0.9389245 0.48,4.3199997 0,3.381076 -0.08759,4.16942 -0.48,4.32 -0.264,0.101307 -0.48,0.495319 -0.48,0.875584 0,0.740065 3.772189,0.690023 5.19016,-0.06885 z M 73.184639,16.88032 71.329273,16.562788 68.253071,12.921394 C 66.561157,10.918627 65.056072,9.28 64.908437,9.28 c -0.6504,0 -0.287133,4.202268 0.412218,4.76857 0.471753,0.382003 0.617001,0.751705 0.473254,1.204603 -0.251296,0.791772 -5.348602,1.381972 -6.155056,0.712675 -0.637236,-0.528859 -0.537709,-1.498685 0.201152,-1.960111 0.58088,-0.362767 0.64,-0.746249 0.64,-4.1514532 0,-3.4242604 -0.05587,-3.7816659 -0.64,-4.0942838 -1.907277,-1.0207437 -0.372951,-2.56 2.551801,-2.56 2.214983,0 2.371876,0.125272 6.48627,5.1789574 1.101062,1.3524269 2.109929,2.4684266 2.241929,2.4799996 0.618541,0.05423 0.246356,-4.6210376 -0.4,-5.0246936 -1.704422,-1.0644295 -0.477769,-2.3281325 1.920001,-1.977993 0.968,0.1413542 2.012,0.26752 2.32,0.2803686 C 76.331731,4.193862 77.312201,6.72 75.962684,6.72 c -0.353296,0 -0.442678,0.8076618 -0.442678,4 0,2.356089 0.126886,4 0.308742,4 0.597152,0 1.016759,1.237057 0.651258,1.92 -0.373277,0.697472 -0.549216,0.710303 -3.295367,0.24032 z m 2.975367,-0.909249 c 0,-0.347136 -0.216,-0.714044 -0.48,-0.815351 -0.392407,-0.15058 -0.48,-0.938924 -0.48,-4.32 0,-3.3810752 0.08759,-4.1694192 0.48,-4.3199997 C 76.885286,6.0532109 76.213321,4.8644669 74.544255,4.5065165 71.208802,3.7911901 69.150767,4.4787117 70.983948,5.695897 71.711814,6.1791818 72.089631,11.52 71.395954,11.52 c -0.156227,0 -1.684301,-1.6595357 -3.395718,-3.687857 -3.454154,-4.09376 -3.752375,-4.325878 -5.499194,-4.2802454 -2.58353,0.067491 -3.854132,1.0783187 -2.360343,1.8777702 1.023959,0.5480052 1.001427,7.7649132 -0.02765,8.8603272 -1.116291,1.188234 -0.446522,1.567648 2.553341,1.446429 2.787565,-0.112641 3.457316,-0.57429 2.28697,-1.576371 -0.802189,-0.686856 -0.97569,-5.6470738 -0.191104,-5.4635167 0.382182,0.089414 2.456758,2.3740777 5.745511,6.3273577 0.773161,0.929384 1.223901,1.145693 3.04,1.45889 2.404291,0.414635 2.612237,0.373901 2.612237,-0.511713 z"
         id="path553" />
      <path
         style="fill:#119e31;stroke-width:0.32"
         d="M 58.240004,112.94448 C 34.769481,110.10757 17.380567,91.043482 16.40287,67.076938 16.131066,60.414122 16.897691,61.48639 20.15143,72.32 c 1.427619,4.753382 1.421335,4.742378 3.126485,5.474275 3.211675,1.378541 6.711954,0.912675 11.168193,-1.486416 2.484439,-1.337539 6.974362,-4.755181 7.981047,-6.075014 0.92074,-1.207149 5.067434,-4.225562 7.437918,-5.414115 2.870675,-1.439351 8.791885,-1.682304 10.666426,-0.437655 0.676519,0.449191 3.143764,6.809907 3.141472,8.098925 -0.0016,0.983357 -1.525296,5.549818 -2.515072,7.538304 -1.220282,2.45159 -3.047511,8.142362 -2.811702,8.756867 0.293222,0.764122 1.643881,0.624272 2.07807,-0.215171 0.493917,-0.954918 1.840928,-5.149453 2.794554,-8.702112 1.179674,-4.394787 2.337699,-4.661158 2.860102,-0.657888 0.252164,1.932397 2.286932,8.674246 2.921537,9.68 0.523197,0.82919 1.649075,0.955987 1.932409,0.217626 0.245549,-0.639892 -0.906988,-4.624442 -2.353817,-8.137626 -2.970404,-7.212707 -3.190289,-8.748813 -1.732941,-12.106365 0.509357,-1.173497 1.025869,-2.606515 1.147805,-3.184477 0.673145,-3.190624 8.135319,-2.92648 13.924327,0.492887 2.675306,1.580211 2.872074,1.735481 5.408762,4.268035 1.590205,1.587613 5.117613,4.343306 7.397386,5.779014 3.204503,2.018064 8.582339,2.760922 11.479389,1.585684 1.61506,-0.655178 2.05592,-1.572816 4.08306,-8.498871 0.61559,-2.103251 1.27478,-4.114707 1.46488,-4.469901 0.1901,-0.355196 0.35973,-0.974982 0.37696,-1.377302 0.0173,-0.40232 0.17533,-0.694864 0.35133,-0.650096 0.60834,0.154733 0.2727,8.423276 -0.46839,12.081392 -5.14508,25.39689 -27.828471,41.20025 -53.771616,38.06448 z M 64.413819,68.093562 C 64.233935,67.866102 63.043835,64.44 61.76915,60.48 59.280379,52.748243 53.415227,35.098374 53.285377,34.949965 52.815111,34.412486 45.794711,33.824675 44.044256,34.176218 40.55487,34.876986 35.71991,37.813757 32.320002,41.297571 28.781273,44.923632 21.934626,49.166698 20.05442,48.898906 16.975644,48.460403 25.616362,34.222339 32.418764,28.525098 42.295242,20.253217 51.708465,16.69152 64.504028,16.690657 c 13.161025,-8.96e-4 22.247918,3.400759 32.200923,11.687238 5.445239,4.533494 13.016619,15.702956 13.173499,19.433843 0.11635,2.766809 -5.91711,-0.443447 -13.353636,-7.105143 -6.439444,-5.768505 -10.5249,-7.275744 -17.302696,-6.383449 l -3.177885,0.418368 -1.326218,3.989241 C 73.988595,40.924842 73.170188,43.368 72.899334,44.16 c -0.270855,0.792 -1.102637,3.384 -1.848407,5.76 -2.810765,8.955021 -5.833706,18.089117 -6.067514,18.333562 -0.133392,0.139459 -0.389709,0.06746 -0.569594,-0.16 z"
         id="path551" />
      <path
         style="fill:#050706;stroke-width:0.32"
         d="m 55.680004,126.85359 c -10.15705,-1.4622 -20.411793,-5.69765 -28.480768,-11.76321 -2.563577,-1.92707 -7.359234,-6.03792 -7.359234,-6.30834 0,-0.12368 -0.611885,-0.85423 -1.359745,-1.62345 C 12.139191,100.63638 6.7450447,90.715571 4.1485616,80.8 2.0217781,72.678141 1.6386957,60.419811 3.2735398,52.8 8.5538583,28.189071 26.074141,9.9666774 50.020097,4.1801136 69.587801,-0.54844134 92.458286,5.1695987 106.25552,18.24 c 0.65026,0.616 1.45278,1.344651 1.78339,1.619223 0.3306,0.274573 1.6811,1.689421 3.0011,3.144106 16.20225,17.855445 20.45383,43.160508 11.16221,66.436671 -10.15288,25.43369 -38.600409,41.43322 -66.522216,37.41359 z m 13.680001,-1.90941 c 0.566746,-0.17582 0.495674,-1.10806 -0.137843,-1.8081 -0.667402,-0.73747 -1.036323,-5.84991 -0.463475,-6.42276 1.28072,-1.28072 0.0019,-2.24013 -2.564291,-1.92396 -2.168708,0.26719 -2.857124,1.06226 -1.729834,1.99782 0.709251,0.58863 0.722659,6.25716 0.01546,6.52854 -0.646547,0.2481 -0.609882,1.37979 0.0568,1.75288 0.483779,0.27074 3.827501,0.18448 4.823203,-0.12442 z m -8.777031,-0.25973 c 4.048506,-1.69157 2.50402,-5.50956 -2.473136,-6.11363 -2.487261,-0.30188 -2.749834,-0.42513 -2.749834,-1.29082 0,-1.31589 3.165953,-1.31783 4.027815,-0.003 0.963216,1.47005 3.332186,1.33694 3.332186,-0.18724 0,-3.00354 -9.475063,-4.2639 -10.562036,-1.40495 -0.928445,2.44199 0.283088,4.10665 3.378656,4.64231 3.353968,0.58037 3.34338,0.5757 3.34338,1.4769 0,0.82231 -0.02394,0.83063 -1.981626,0.68902 -1.089895,-0.0788 -2.031088,-0.29172 -2.09154,-0.47308 -0.531212,-1.59364 -3.690201,-2.19647 -3.860733,-0.73674 -0.185542,1.58822 1.631613,2.81959 4.913738,3.32971 3.717703,0.57783 3.517287,0.57482 4.72313,0.071 z m 17.31507,-0.85012 c 2.815834,-0.62249 3.967598,-1.27067 4.71193,-2.65175 0.331418,-0.61494 -1.368768,-6.42883 -2.088147,-7.14055 -1.634874,-1.61747 -8.268925,-0.50224 -9.662282,1.62429 -0.526976,0.80426 -0.184704,6.45731 0.450249,7.43648 0.896368,1.3823 2.725661,1.58542 6.58825,0.73153 z M 74.776777,121.68 c -0.07755,-0.132 -0.326291,-1.29061 -0.552762,-2.5747 -0.492803,-2.79422 -0.264723,-3.18822 1.928612,-3.33163 l 1.432621,-0.0937 0.563321,1.73566 c 1.090999,3.3615 1.083031,3.73494 -0.0884,4.1433 -1.177078,0.41034 -3.072384,0.4802 -3.283392,0.12104 z m -29.576412,-1.51955 c -0.08255,-1.32622 0.895546,-4.74225 1.655341,-5.78134 0.417466,-0.57092 0.484147,-0.56011 1.686675,0.27324 1.531901,1.06161 1.865904,1.07668 2.497505,0.11274 0.755888,-1.15363 0.301075,-1.7072 -2.027652,-2.46795 -1.172726,-0.38311 -3.405357,-1.28167 -4.961399,-1.99681 -3.125619,-1.4365 -3.890832,-1.38009 -3.890832,0.28684 0,0.94499 0.28113,1.12264 2.48,1.56713 1.10162,0.22269 1.097786,0.32704 -0.119395,3.25084 -0.715245,1.7181 -1.215648,2.48288 -1.76,2.68984 -0.605975,0.23039 -1.20089,1.89687 -0.680605,1.9065 0.044,9.6e-4 0.944,0.3602 2,0.79862 2.660346,1.10451 3.221767,0.98943 3.120362,-0.63965 z M 91.244737,119.12 c 4.287347,-2.17569 5.292406,-3.85583 3.618986,-6.0498 -1.085713,-1.42344 -2.610039,-1.44977 -5.300599,-0.0916 -2.194813,1.10794 -3.273153,1.13254 -3.423181,0.0781 -0.143597,-1.00924 2.267168,-2.24496 3.483782,-1.78574 1.117712,0.42189 3.149143,-0.58258 3.171383,-1.56814 0.05757,-2.55108 -7.999655,-0.41201 -9.721623,2.58094 -0.981591,1.7061 -0.234711,3.5513 1.683018,4.15799 1.337526,0.42313 1.492928,0.39945 3.68,-0.56079 2.474749,-1.08655 3.254106,-1.22106 3.482128,-0.601 0.452275,1.22986 -1.981411,2.64729 -3.968807,2.31152 -1.353545,-0.22868 -2.991257,0.25372 -3.262685,0.96104 -0.391481,1.02019 0.825623,1.83738 3.037597,2.03949 0.288602,0.0264 1.872602,-0.63605 3.520001,-1.47205 z m -55.531358,-3.30463 c 0.04564,-1.5651 2.164397,-5.29436 3.358906,-5.91206 1.237001,-0.63968 1.183113,-1.52941 -0.139911,-2.31001 -0.587197,-0.34646 -1.434976,-0.87061 -1.883955,-1.16479 -0.990067,-0.64872 -2.025975,0.0579 -1.732131,1.18161 0.238873,0.91345 -2.751338,5.27073 -3.710508,5.40687 -1.413741,0.20065 -0.932193,1.54287 1.034223,2.88268 2.219216,1.51205 3.027475,1.48988 3.073376,-0.0843 z m 67.190641,-4.32208 c 0.99978,-0.86531 2.15482,-1.86129 2.56677,-2.21329 1.6387,-1.40025 1.85541,-3.77278 0.46619,-5.10374 -1.41988,-1.36033 -3.03626,-0.99864 -5.70027,1.27553 -2.044488,1.7453 -3.276703,1.99131 -3.276703,0.65419 0,-0.86228 2.506506,-2.7716 3.357953,-2.5579 1.11637,0.28019 2.90961,-1.4797 2.42685,-2.38173 -0.84274,-1.574689 -2.875801,-1.02537 -5.799971,1.5671 -3.395309,3.01017 -3.941747,4.54859 -2.256444,6.35271 1.569289,1.67993 3.011373,1.39491 6.058205,-1.19736 1.70721,-1.45251 2.48216,-1.56256 2.86728,-0.40717 0.26022,0.78065 -2.52757,2.96182 -3.50983,2.74608 -0.965889,-0.21215 -3.144043,1.14026 -3.144043,1.95212 0,1.89994 3.410773,1.50599 5.944013,-0.68654 z M 30.191202,112.16 c -0.0536,-1.05436 0.39682,-4.1473 0.866174,-5.94786 0.196213,-0.75272 0.582714,-1.27703 1.12277,-1.52309 1.211985,-0.55222 0.910218,-1.21216 -1.686607,-3.68848 -2.415749,-2.303645 -3.046934,-2.490848 -3.58922,-1.064528 -0.321177,0.844758 -3.866268,1.823958 -6.603455,1.823958 -2.36213,0 -2.244988,0.99394 0.451177,3.8282 1.35552,1.42494 1.966015,1.45293 2.574247,0.118 l 0.372973,-0.81858 1.557812,1.39619 c 1.682983,1.50838 1.994038,2.35528 0.982929,2.67619 -1.169611,0.37122 -0.771792,1.53962 1.020666,2.99772 1.977616,1.60872 3.005636,1.67968 2.930534,0.20228 z m -3.642596,-7.05373 c -0.358256,-0.43167 -0.353081,-0.56211 0.03197,-0.80576 0.801332,-0.50706 1.309773,-0.34018 1.20168,0.39442 -0.130544,0.88718 -0.685242,1.07213 -1.233653,0.41134 z m 44.179793,7.84721 C 95.119422,110.01646 112.45006,90.652864 112.82391,65.92 l 0.0846,-5.6 1.78506,-5.44 c 0.98178,-2.992 1.78535,-5.609408 1.78572,-5.816461 3.2e-4,-0.266486 -0.89892,-0.359968 -3.07871,-0.32 L 110.32126,48.8 109.92433,47.473642 C 107.58206,39.646867 100.15224,30.344249 91.60154,24.532301 76.326313,14.149666 53.366673,14.048821 38.073129,24.297191 29.21084,30.235908 21.753139,39.470013 19.355235,47.473642 L 18.957855,48.8 15.878928,48.728621 c -1.69341,-0.03926 -3.07802,-0.03926 -3.076913,0 0.0011,0.03926 0.809964,2.519379 1.797457,5.511379 l 1.795444,5.44 0.06426,5.92 c 0.320159,29.495981 24.846062,50.89645 54.269226,47.35348 z M 69.00046,88.88 c -0.634605,-1.005754 -2.669373,-7.747603 -2.921537,-9.68 -0.522403,-4.00327 -1.680428,-3.736899 -2.860102,0.657888 -0.953626,3.552659 -2.300637,7.747194 -2.794554,8.702112 -0.434189,0.839443 -1.784848,0.979293 -2.07807,0.215171 -0.235809,-0.614505 1.59142,-6.305277 2.811702,-8.756867 0.989498,-1.98793 2.513216,-6.554531 2.515274,-7.538304 6.4e-4,-0.352 -0.569834,-2.257587 -1.26793,-4.234637 C 61.707147,66.26831 61.213803,64.447907 61.308926,64.200019 61.48195,63.749126 57.568462,51.109184 56.788574,49.6 c -0.227376,-0.44 -1.308887,-3.68 -2.403357,-7.2 -1.09447,-3.52 -2.112243,-6.637606 -2.261719,-6.928013 -0.296403,-0.575865 0.321069,-1.014381 0.904541,-0.642381 0.329207,0.209888 4.349969,12.008631 8.741111,25.650394 2.310977,7.179395 2.755133,8.253574 3.214263,7.773562 0.233808,-0.244445 3.256749,-9.378541 6.067514,-18.333562 0.74577,-2.376 1.577552,-4.968 1.848407,-5.76 0.270854,-0.792 1.090121,-3.24 1.820595,-5.44 1.115344,-3.359136 1.439638,-4.016384 2.024106,-4.102256 0.382784,-0.05624 0.695971,0.01139 0.695971,0.150275 0,0.383965 -3.770042,12.208442 -4.473869,14.031981 -1.42081,3.681165 -4.841165,14.647146 -4.690772,15.039059 0.192339,0.501232 -0.719798,3.559181 -1.670675,5.600941 -1.205027,2.587475 -0.849139,4.664003 1.974362,11.52 1.446829,3.513184 2.599366,7.497734 2.353817,8.137626 C 70.649535,89.835987 69.523657,89.70919 69.00046,88.88 Z M 24.960002,78.24 c 0,-0.088 0.072,-0.16 0.16,-0.16 0.088,0 0.16,0.072 0.16,0.16 0,0.088 -0.072,0.16 -0.16,0.16 -0.088,0 -0.16,-0.072 -0.16,-0.16 z m 86.319208,24.52536 c 1.54435,-1.8945 1.70617,-3.013734 0.46123,-3.190179 -1.17877,-0.167072 -1.14928,-0.830973 0.12198,-2.745623 1.30313,-1.962662 1.63715,-2.114476 2.4818,-1.128 0.31154,0.363856 0.73955,0.607709 0.95112,0.541898 0.47159,-0.146701 2.76053,-4.355635 2.77455,-5.101891 0.0127,-0.674077 -1.15447,-1.075709 -1.73233,-0.596128 -0.91848,0.762265 -6.82104,0.58216 -7.3882,-0.225437 -0.89143,-1.269328 -1.4917,-0.873485 -3.39125,2.236323 -1.91722,3.138736 -1.99891,3.691517 -0.58725,3.973847 0.96579,0.193158 3.2041,4.76651 3.19388,6.52583 -0.0122,2.10212 1.26078,1.98333 3.11447,-0.29064 z m -1.96805,-6.817997 C 108.59208,94.920733 108.66549,94.72 109.76001,94.72 c 1.04366,0 1.20649,0.448061 0.50097,1.378563 -0.41759,0.550759 -0.46324,0.543491 -0.94982,-0.1512 z m -85.97571,1.464192 c 1.442414,-1.213712 1.388117,-3.139545 -0.160948,-5.708547 -0.62912,-1.043344 -1.643248,-2.888653 -2.253616,-4.100682 -1.215393,-2.413446 -1.778188,-2.650496 -2.654992,-1.118281 -0.735508,1.285299 -4.934238,3.253558 -5.794498,2.716317 -0.511023,-0.31914 -0.720782,-0.288119 -1.183994,0.175094 -0.830248,0.83025 1.541144,5.504544 2.792599,5.504544 0.631349,0 0.821035,-0.182294 0.89978,-0.864714 0.06291,-0.5452 0.349503,-0.943974 0.775618,-1.079216 0.735877,-0.233558 0.724704,-0.245113 2.441448,2.525082 1.661106,2.680419 3.459712,3.363094 5.138603,1.950403 z m -3.219362,-3.029769 c -1.033359,-0.578298 -1.767778,-2.875578 -1.080059,-3.378452 0.886002,-0.647862 1.044541,-0.573536 1.757469,0.823917 1.01757,1.994602 0.669241,3.308157 -0.67741,2.554535 z M 38.240003,22.149883 c 2.300944,-1.222256 2.628218,-1.76928 1.961802,-3.279065 -0.345229,-0.782126 0.457264,-1.541549 2.509491,-2.374811 2.208122,-0.89656 3.06281,-0.663395 2.229597,0.60825 -1.170035,1.785698 0.258918,2.184491 3.699111,1.032349 2.271862,-0.760862 2.867315,-1.660927 1.658809,-2.507398 -1.279491,-0.89619 -4.256992,-6.7366224 -3.730806,-7.3180525 0.623299,-0.6887369 0.602272,-1.8812512 -0.0375,-2.1267549 -0.524557,-0.2012905 -6.107936,1.7851168 -7.403335,2.6338954 -0.772662,0.5062678 -0.965389,1.695482 -0.371088,2.289784 0.367606,0.367607 -2.250432,8.160232 -3.434925,10.22409 -1.249923,2.177864 -0.196995,2.472842 2.918844,0.817713 z M 41.781168,14 c 0.766214,-2.459608 0.88137,-2.548753 1.570618,-1.215891 0.634147,1.226304 0.650393,1.176748 -0.519533,1.584587 C 41.509699,14.82974 41.521408,14.833847 41.781168,14 Z m 51.658839,8.505197 c 0,-0.470142 -0.204592,-1.082142 -0.454646,-1.36 C 92.3077,20.39219 89.18256,11.460574 89.517722,11.234723 90.08497,10.852477 90.184372,9.9829757 89.734285,9.3403843 89.297476,8.7167542 83.144214,6.08 82.125686,6.08 c -0.725238,0 -0.970285,1.2021674 -0.417129,2.0463891 0.533177,0.8137315 -2.219156,6.4744489 -3.627661,7.4610049 -1.484093,1.039499 -0.752877,1.975089 2.154278,2.756397 3.183146,0.855482 4.248285,0.445906 3.159962,-1.215088 -0.881632,-1.345538 -0.15343,-1.557419 2.164058,-0.629665 2.400099,0.960825 2.952435,1.610284 2.400218,2.822269 -0.547498,1.201629 -0.193287,1.6701 2.186045,2.891206 2.698073,1.384689 3.29455,1.437679 3.29455,0.292684 z M 85.451725,14.36477 c -1.088672,-0.434574 -1.084096,-0.419235 -0.475882,-1.595393 l 0.543028,-1.050099 0.400684,0.780361 c 1.056673,2.057943 0.961885,2.435839 -0.46783,1.865131 z m -30.091721,2.410241 c 0.968,-0.121424 2.012,-0.350542 2.32,-0.50915 0.791085,-0.407378 0.734801,-1.880067 -0.08,-2.093141 -0.595673,-0.155772 -0.64,-0.436485 -0.64,-4.053067 0,-3.539141 0.05708,-3.9213506 0.64,-4.2853896 1.704423,-1.0644295 0.47777,-2.3281325 -1.92,-1.977993 -0.968,0.1413542 -2.012,0.26752 -2.32,0.2803686 C 51.988279,4.1938621 51.007809,6.72 52.357326,6.72 c 0.353296,0 0.442678,0.8076618 0.442678,4 0,2.356089 -0.126886,4 -0.308742,4 -0.169808,0 -0.462874,0.288 -0.651258,0.64 -0.499974,0.93421 0.147792,2.031335 1.066294,1.805983 0.381537,-0.09361 1.485706,-0.269547 2.453706,-0.390972 z M 76.480006,16.64 c 0.365501,-0.682943 -0.05411,-1.92 -0.651258,-1.92 -0.181856,0 -0.308742,-1.643911 -0.308742,-4 0,-3.1923382 0.08938,-4 0.442678,-4 1.349517,0 0.369047,-2.5261379 -1.002678,-2.583361 -0.308,-0.012848 -1.352,-0.1390144 -2.32,-0.2803686 -2.39777,-0.3501395 -3.624423,0.9135635 -1.920001,1.977993 0.646356,0.403656 1.018541,5.0789256 0.4,5.0246936 -0.132,-0.01157 -1.140867,-1.1275727 -2.241929,-2.4799996 C 64.763682,3.325272 64.606789,3.2 62.391806,3.2 c -2.924752,0 -4.459078,1.5392563 -2.551801,2.56 0.584131,0.3126179 0.64,0.6700234 0.64,4.0942838 0,3.4052042 -0.05912,3.7886862 -0.64,4.1514532 -0.738861,0.461426 -0.838388,1.431252 -0.201152,1.960111 0.806454,0.669297 5.90376,0.0791 6.155056,-0.712675 0.143747,-0.452898 -0.0016,-0.8226 -0.473254,-1.204603 C 64.621304,13.482268 64.258037,9.28 64.908437,9.28 c 0.147635,0 1.65272,1.638627 3.344634,3.641394 l 3.076202,3.641394 1.855366,0.317532 c 2.746151,0.469983 2.92209,0.457152 3.295367,-0.24032 z"
         id="path549" />
    </g>
  </g>
</svg>
