<?xml version="1.0" encoding="utf-8"?>
<!-- Generator: Adobe Illustrator 19.1.0, SVG Export Plug-In . SVG Version: 6.00 Build 0)  -->
<svg version="1.1" id="Layer_1" xmlns="http://www.w3.org/2000/svg" xmlns:xlink="http://www.w3.org/1999/xlink" x="0px" y="0px"
	 width="1000px" height="1000px" viewBox="0 0 1000 1000" style="enable-background:new 0 0 1000 1000;" xml:space="preserve">
<style type="text/css">
	.st0{fill:#878787;}
	.st1{fill:#242424;}
	.st2{fill:#474747;}
	.st3{fill:#333333;}
	.st4{fill:#520000;}
	.st5{fill:#543e00;}
	.st6{fill:#073600;}
</style>
<g>
	<path class="st0" d="M632.1,99.9c0.3-2.2,0.4-4.4,0.4-6.7c0-45.3-58.6-81.9-131-81.9c-72.3,0-131,36.7-131,81.9
		c0,2.3,0.2,4.5,0.4,6.7H632.1z"/>
	<path class="st0" d="M699.9,934.9l2-214.6h204.5c-0.8,49.2,10.9,65.5-64.8,127.8c-40,32.9-60.4,42.1-62.3,86.8H699.9z"/>
	<path class="st0" d="M699.9,351.1l2-214.6h204.5c-0.8,49.2,10.9,65.5-64.8,127.8c-40,32.9-60.4,42.1-62.3,86.8L699.9,351.1
		L699.9,351.1z"/>
	<path class="st0" d="M699.9,643l2-214.6h204.5c-0.8,49.2,10.9,65.5-64.8,127.8c-40,32.9-60.4,42.1-62.3,86.8H699.9z"/>
	<path class="st0" d="M302.5,934.9l-2-214.6H96c0.8,49.2-10.9,65.5,64.8,127.8c40,32.9,60.4,42.1,62.3,86.8H302.5z"/>
	<path class="st0" d="M301.1,351.1l-2-214.6H94.6c0.8,49.2-10.9,65.5,64.8,127.8c40,32.9,60.4,42.1,62.3,86.8L301.1,351.1
		L301.1,351.1z"/>
	<path class="st0" d="M301.1,643l-2-214.6H94.6c0.8,49.2-10.9,65.5,64.8,127.8c40,32.9,60.4,42.1,62.3,86.8H301.1z"/>
	<polygon class="st1" points="332.1,968.5 668.3,968.5 668.3,988.7 332.1,988.7 	"/>
	<polygon class="st1" points="332.1,83.7 668.3,83.7 668.3,106 332.1,106 	"/>
	<polygon class="st2" points="690.5,389.9 690.5,389.1 702.5,377.4 702.5,112.2 690.5,100.6 690.5,100.5 690.5,99.9 691,99.9 
		678.6,99.9 668.6,99.9 332.5,99.9 319.7,99.9 310,99.9 310.5,99.9 310.5,100.5 310.5,100.6 298.5,112.2 298.5,377.4 310.5,389.1 
		310.5,389.9 319.5,389.9 319.5,392.9 310.5,392.9 310.5,392.8 298.5,404.1 298.5,669.4 310.5,680.7 310.5,681.9 319.5,681.9 
		319.5,683.9 310.5,683.9 310.5,684.7 298.5,696 298.5,961.3 310.5,972.6 310.5,972.9 319.7,972.9 332.5,972.9 668.6,972.9 
		678.6,972.9 690.5,972.9 690.5,972.5 702.5,961.3 702.5,696 690.5,684.9 690.5,683.9 678.5,683.9 678.5,680.9 691.2,681 
		702.5,669.4 702.5,404.1 691.2,392.5 678.5,392.5 678.5,389.9 	"/>
	<polygon class="st3" points="358,99.9 356.5,99.8 356.5,389.1 357.2,389.1 357.2,389.9 645.8,389.9 645.3,389.1 645.5,389.1 
		645.5,99.9 	"/>
	<polygon class="st3" points="358,392.9 356.9,392 356.5,391.7 356.5,681 357.2,681.1 357.2,681.9 645.8,681.9 645.3,681.1 
		645.5,681 645.5,392.5 645.6,392.7 645.8,392.9 	"/>
	<polygon class="st3" points="358,683.9 356.9,683.4 356.5,683.7 356.5,972.9 357.2,972.6 357.2,972.9 645.8,972.9 645.3,972.6 
		645.5,972.9 645.5,684.4 645.6,684.1 645.8,683.9 	"/>
	<circle class="st4" cx="501.5" cy="244.4" r="108.5"/>
	<circle class="st5" cx="501.5" cy="536.3" r="108.5"/>
	<circle class="st6" cx="501.5" cy="828.3" r="108.5"/>
</g>
</svg>
